M48
; DRILL file {KiCad 7.0.6} date Sat Jul 22 11:20:49 2023
; FORMAT={-:-/ absolute / inch / decimal}
; #@! TF.CreationDate,2023-07-22T11:20:49-03:00
; #@! TF.GenerationSoftware,Kicad,Pcbnew,7.0.6
; #@! TF.FileFunction,Plated,1,2,PTH
FMAT,2
INCH
; #@! TA.AperFunction,Plated,PTH,ViaDrill
T1C0.0138
; #@! TA.AperFunction,Plated,PTH,ComponentDrill
T2C0.0197
; #@! TA.AperFunction,Plated,PTH,ComponentDrill
T3C0.0591
; #@! TA.AperFunction,Plated,PTH,ComponentDrill
T4C0.0598
; #@! TA.AperFunction,Plated,PTH,ComponentDrill
T5C0.0669
; #@! TA.AperFunction,Plated,PTH,ComponentDrill
T6C0.1260
%
G90
G05
T1
X4.9016Y-2.4134
X4.9016Y-2.7283
X4.9016Y-3.0433
X4.9016Y-3.9882
X4.9016Y-4.3031
X4.9016Y-4.6181
X5.2165Y-2.4134
X5.2165Y-2.7283
X5.2165Y-3.0433
X5.2165Y-3.6732
X5.2165Y-3.9882
X5.2165Y-4.3031
X5.2165Y-4.6181
X5.5315Y-2.4134
X5.5315Y-2.7283
X5.5315Y-3.0433
X5.5315Y-3.3583
X5.5315Y-3.6732
X5.5315Y-3.9882
X5.5315Y-4.3031
X5.5315Y-4.6181
X5.8465Y-2.4134
X5.8465Y-2.7283
X5.8465Y-3.0433
X5.8465Y-3.3583
X5.8465Y-3.6732
X5.8465Y-3.9882
X5.8465Y-4.3031
X5.8465Y-4.6181
X6.1614Y-4.3031
X6.1614Y-4.6181
X6.4764Y-2.4134
X6.4764Y-2.7283
X6.4764Y-3.0433
X6.4764Y-3.3583
X6.4764Y-3.6732
X6.4764Y-3.9882
X6.4764Y-4.3031
X6.4764Y-4.6181
X6.7913Y-2.4134
X6.7913Y-2.7283
X6.7913Y-3.0433
X6.7913Y-3.3583
X6.7913Y-3.6732
X6.7913Y-3.9882
X6.7913Y-4.3031
X6.7913Y-4.6181
T2
X4.9646Y-2.5709
X4.9646Y-4.4606
X4.9922Y-2.5041
X4.9922Y-2.6377
X4.9922Y-4.3938
X4.9922Y-4.5274
X5.0591Y-2.4764
X5.0591Y-2.6654
X5.0591Y-4.3661
X5.0591Y-4.5551
X5.1259Y-2.5041
X5.1259Y-2.6377
X5.1259Y-4.3938
X5.1259Y-4.5274
X5.1535Y-2.5709
X5.1535Y-4.4606
X6.5394Y-2.5709
X6.5394Y-4.4606
X6.567Y-2.5041
X6.567Y-2.6377
X6.567Y-4.3938
X6.567Y-4.5274
X6.6339Y-2.4764
X6.6339Y-2.6654
X6.6339Y-4.3661
X6.6339Y-4.5551
X6.7007Y-2.5041
X6.7007Y-2.6377
X6.7007Y-4.3938
X6.7007Y-4.5274
X6.7283Y-2.5709
X6.7283Y-4.4606
T3
X4.9016Y-4.1457
X6.1378Y-2.5394
T4
X4.9016Y-3.3583
X4.9016Y-3.5583
X4.9016Y-3.7583
X6.5984Y-3.9488
X6.5984Y-4.1488
T5
X4.8016Y-4.0457
X4.8016Y-4.2457
X5.0016Y-4.0457
X5.0016Y-4.2457
X6.0378Y-2.4394
X6.0378Y-2.6394
X6.2378Y-2.4394
X6.2378Y-2.6394
T6
X5.0591Y-2.5709
X5.0591Y-4.4606
X6.6339Y-2.5709
X6.6339Y-4.4606
T0
M30
