%TF.GenerationSoftware,KiCad,Pcbnew,7.0.6*%
%TF.CreationDate,2023-07-22T11:20:37-03:00*%
%TF.ProjectId,MiniAsic_2020,4d696e69-4173-4696-935f-323032302e6b,rev?*%
%TF.SameCoordinates,Original*%
%TF.FileFunction,Copper,L1,Top*%
%TF.FilePolarity,Positive*%
%FSLAX46Y46*%
G04 Gerber Fmt 4.6, Leading zero omitted, Abs format (unit mm)*
G04 Created by KiCad (PCBNEW 7.0.6) date 2023-07-22 11:20:37*
%MOMM*%
%LPD*%
G01*
G04 APERTURE LIST*
G04 Aperture macros list*
%AMRoundRect*
0 Rectangle with rounded corners*
0 $1 Rounding radius*
0 $2 $3 $4 $5 $6 $7 $8 $9 X,Y pos of 4 corners*
0 Add a 4 corners polygon primitive as box body*
4,1,4,$2,$3,$4,$5,$6,$7,$8,$9,$2,$3,0*
0 Add four circle primitives for the rounded corners*
1,1,$1+$1,$2,$3*
1,1,$1+$1,$4,$5*
1,1,$1+$1,$6,$7*
1,1,$1+$1,$8,$9*
0 Add four rect primitives between the rounded corners*
20,1,$1+$1,$2,$3,$4,$5,0*
20,1,$1+$1,$4,$5,$6,$7,0*
20,1,$1+$1,$6,$7,$8,$9,0*
20,1,$1+$1,$8,$9,$2,$3,0*%
G04 Aperture macros list end*
%TA.AperFunction,SMDPad,CuDef*%
%ADD10RoundRect,0.225000X0.225000X0.250000X-0.225000X0.250000X-0.225000X-0.250000X0.225000X-0.250000X0*%
%TD*%
%TA.AperFunction,SMDPad,CuDef*%
%ADD11RoundRect,0.200000X0.200000X0.275000X-0.200000X0.275000X-0.200000X-0.275000X0.200000X-0.275000X0*%
%TD*%
%TA.AperFunction,SMDPad,CuDef*%
%ADD12R,0.300000X0.200000*%
%TD*%
%TA.AperFunction,SMDPad,CuDef*%
%ADD13R,0.200000X0.300000*%
%TD*%
%TA.AperFunction,SMDPad,CuDef*%
%ADD14R,3.000000X3.000000*%
%TD*%
%TA.AperFunction,SMDPad,CuDef*%
%ADD15RoundRect,0.225000X-0.250000X0.225000X-0.250000X-0.225000X0.250000X-0.225000X0.250000X0.225000X0*%
%TD*%
%TA.AperFunction,ComponentPad*%
%ADD16RoundRect,0.200100X0.949900X-0.949900X0.949900X0.949900X-0.949900X0.949900X-0.949900X-0.949900X0*%
%TD*%
%TA.AperFunction,ComponentPad*%
%ADD17C,2.500000*%
%TD*%
%TA.AperFunction,ComponentPad*%
%ADD18C,0.800000*%
%TD*%
%TA.AperFunction,ComponentPad*%
%ADD19C,6.400000*%
%TD*%
%TA.AperFunction,SMDPad,CuDef*%
%ADD20RoundRect,0.200000X-0.275000X0.200000X-0.275000X-0.200000X0.275000X-0.200000X0.275000X0.200000X0*%
%TD*%
%TA.AperFunction,SMDPad,CuDef*%
%ADD21RoundRect,0.200000X0.275000X-0.200000X0.275000X0.200000X-0.275000X0.200000X-0.275000X-0.200000X0*%
%TD*%
%TA.AperFunction,ComponentPad*%
%ADD22RoundRect,0.200100X-0.949900X-0.949900X0.949900X-0.949900X0.949900X0.949900X-0.949900X0.949900X0*%
%TD*%
%TA.AperFunction,SMDPad,CuDef*%
%ADD23RoundRect,0.200000X-0.200000X-0.275000X0.200000X-0.275000X0.200000X0.275000X-0.200000X0.275000X0*%
%TD*%
%TA.AperFunction,ComponentPad*%
%ADD24R,3.000000X3.000000*%
%TD*%
%TA.AperFunction,ComponentPad*%
%ADD25C,3.000000*%
%TD*%
%TA.AperFunction,SMDPad,CuDef*%
%ADD26RoundRect,0.218750X0.218750X0.256250X-0.218750X0.256250X-0.218750X-0.256250X0.218750X-0.256250X0*%
%TD*%
%TA.AperFunction,ViaPad*%
%ADD27C,0.700000*%
%TD*%
%TA.AperFunction,Conductor*%
%ADD28C,0.350000*%
%TD*%
%TA.AperFunction,Conductor*%
%ADD29C,0.200000*%
%TD*%
G04 APERTURE END LIST*
D10*
%TO.P,C2,1*%
%TO.N,/VG_GATED*%
X151275000Y-94300000D03*
%TO.P,C2,2*%
%TO.N,GND*%
X149725000Y-94300000D03*
%TD*%
D11*
%TO.P,R1,1*%
%TO.N,/OUT*%
X155925000Y-97300000D03*
%TO.P,R1,2*%
%TO.N,/VG_GATED*%
X154275000Y-97300000D03*
%TD*%
D12*
%TO.P,U1,1,DRV_VDD*%
%TO.N,+1V8*%
X154500000Y-104892500D03*
%TO.P,U1,2,IN*%
%TO.N,/IN*%
X154500000Y-105292500D03*
D13*
%TO.P,U1,3,VG*%
%TO.N,/VG_GATED*%
X155300000Y-104092500D03*
%TO.P,U1,4,OUT_1*%
%TO.N,/OUT*%
X155700000Y-104092500D03*
%TO.P,U1,5,OUT_2*%
X156100000Y-104092500D03*
D14*
%TO.P,U1,6,GND*%
%TO.N,GND*%
X156500000Y-106092500D03*
%TD*%
D11*
%TO.P,Z12,1*%
%TO.N,GND*%
X157525000Y-74500000D03*
%TO.P,Z12,2*%
%TO.N,Net-(J4-In)*%
X155875000Y-74500000D03*
%TD*%
D15*
%TO.P,C1,1*%
%TO.N,+1V8*%
X151300000Y-100325000D03*
%TO.P,C1,2*%
%TO.N,GND*%
X151300000Y-101875000D03*
%TD*%
D16*
%TO.P,J3,1,In*%
%TO.N,Net-(J3-In)*%
X124500000Y-105300000D03*
D17*
%TO.P,J3,2,Ext*%
%TO.N,GND*%
X121960000Y-107840000D03*
X127040000Y-107840000D03*
X121960000Y-102760000D03*
X127040000Y-102760000D03*
%TD*%
D18*
%TO.P,H3,1,1*%
%TO.N,GND*%
X126100000Y-113300000D03*
X126802944Y-111602944D03*
X126802944Y-114997056D03*
X128500000Y-110900000D03*
D19*
X128500000Y-113300000D03*
D18*
X128500000Y-115700000D03*
X130197056Y-111602944D03*
X130197056Y-114997056D03*
X130900000Y-113300000D03*
%TD*%
D20*
%TO.P,Z8,1*%
%TO.N,Net-(Z8-Pad1)*%
X155900000Y-89675000D03*
%TO.P,Z8,2*%
%TO.N,/OUT*%
X155900000Y-91325000D03*
%TD*%
D21*
%TO.P,Z2,1*%
%TO.N,Net-(Z1-Pad2)*%
X139100000Y-105325000D03*
%TO.P,Z2,2*%
%TO.N,GND*%
X139100000Y-103675000D03*
%TD*%
D20*
%TO.P,Z11,1*%
%TO.N,Net-(J4-In)*%
X155900000Y-77475000D03*
%TO.P,Z11,2*%
%TO.N,Net-(Z10-Pad2)*%
X155900000Y-79125000D03*
%TD*%
D11*
%TO.P,Z7,1*%
%TO.N,GND*%
X157525000Y-94300000D03*
%TO.P,Z7,2*%
%TO.N,/OUT*%
X155875000Y-94300000D03*
%TD*%
D22*
%TO.P,J4,1,In*%
%TO.N,Net-(J4-In)*%
X155900000Y-64500000D03*
D17*
%TO.P,J4,2,Ext*%
%TO.N,GND*%
X153360000Y-61960000D03*
X153360000Y-67040000D03*
X158440000Y-61960000D03*
X158440000Y-67040000D03*
%TD*%
D18*
%TO.P,H1,1,1*%
%TO.N,GND*%
X126100000Y-65300000D03*
X126802944Y-63602944D03*
X126802944Y-66997056D03*
X128500000Y-62900000D03*
D19*
X128500000Y-65300000D03*
D18*
X128500000Y-67700000D03*
X130197056Y-63602944D03*
X130197056Y-66997056D03*
X130900000Y-65300000D03*
%TD*%
D23*
%TO.P,Z3,1*%
%TO.N,Net-(Z1-Pad2)*%
X142075000Y-105300000D03*
%TO.P,Z3,2*%
%TO.N,Net-(Z3-Pad2)*%
X143725000Y-105300000D03*
%TD*%
%TO.P,Z1,1*%
%TO.N,Net-(J3-In)*%
X134475000Y-105300000D03*
%TO.P,Z1,2*%
%TO.N,Net-(Z1-Pad2)*%
X136125000Y-105300000D03*
%TD*%
D24*
%TO.P,J2,1,Pin_1*%
%TO.N,+3V3*%
X167600000Y-100300000D03*
D25*
%TO.P,J2,2,Pin_2*%
%TO.N,GND*%
X167600000Y-105380000D03*
%TD*%
D24*
%TO.P,J1,1,Pin_1*%
%TO.N,/VG*%
X124500000Y-85300000D03*
D25*
%TO.P,J1,2,Pin_2*%
%TO.N,+1V8*%
X124500000Y-90380000D03*
%TO.P,J1,3,Pin_3*%
%TO.N,GND*%
X124500000Y-95460000D03*
%TD*%
D26*
%TO.P,L1,1,1*%
%TO.N,+3V3*%
X157487500Y-100300000D03*
%TO.P,L1,2,2*%
%TO.N,/OUT*%
X155912500Y-100300000D03*
%TD*%
D18*
%TO.P,H2,1,1*%
%TO.N,GND*%
X166100000Y-65300000D03*
X166802944Y-63602944D03*
X166802944Y-66997056D03*
X168500000Y-62900000D03*
D19*
X168500000Y-65300000D03*
D18*
X168500000Y-67700000D03*
X170197056Y-63602944D03*
X170197056Y-66997056D03*
X170900000Y-65300000D03*
%TD*%
D20*
%TO.P,Z9,1*%
%TO.N,Net-(Z10-Pad2)*%
X155900000Y-85075000D03*
%TO.P,Z9,2*%
%TO.N,Net-(Z8-Pad1)*%
X155900000Y-86725000D03*
%TD*%
D18*
%TO.P,H4,1,1*%
%TO.N,GND*%
X166100000Y-113300000D03*
X166802944Y-111602944D03*
X166802944Y-114997056D03*
X168500000Y-110900000D03*
D19*
X168500000Y-113300000D03*
D18*
X168500000Y-115700000D03*
X170197056Y-111602944D03*
X170197056Y-114997056D03*
X170900000Y-113300000D03*
%TD*%
D11*
%TO.P,R2,1*%
%TO.N,/VG_GATED*%
X151325000Y-97300000D03*
%TO.P,R2,2*%
%TO.N,/VG*%
X149675000Y-97300000D03*
%TD*%
D23*
%TO.P,Z5,1*%
%TO.N,Net-(Z3-Pad2)*%
X149675000Y-105300000D03*
%TO.P,Z5,2*%
%TO.N,/IN*%
X151325000Y-105300000D03*
%TD*%
D21*
%TO.P,Z4,1*%
%TO.N,Net-(Z3-Pad2)*%
X146700000Y-105325000D03*
%TO.P,Z4,2*%
%TO.N,GND*%
X146700000Y-103675000D03*
%TD*%
D11*
%TO.P,Z10,1*%
%TO.N,GND*%
X157525000Y-82100000D03*
%TO.P,Z10,2*%
%TO.N,Net-(Z10-Pad2)*%
X155875000Y-82100000D03*
%TD*%
D27*
%TO.N,GND*%
X172500000Y-85300000D03*
X172500000Y-61300000D03*
X140500000Y-61300000D03*
X148500000Y-69300000D03*
X148500000Y-101300000D03*
X132500000Y-109300000D03*
X124500000Y-69300000D03*
X164500000Y-117300000D03*
X148500000Y-109300000D03*
X140500000Y-117300000D03*
X172500000Y-69300000D03*
X140500000Y-101300000D03*
X132500000Y-101300000D03*
X164500000Y-93300000D03*
X172500000Y-109300000D03*
X132500000Y-93300000D03*
X140500000Y-93300000D03*
X164500000Y-69300000D03*
X148500000Y-85300000D03*
X164500000Y-101300000D03*
X172500000Y-101300000D03*
X164500000Y-61300000D03*
X164500000Y-85300000D03*
X140500000Y-77300000D03*
X124500000Y-77300000D03*
X140500000Y-69300000D03*
X164500000Y-109300000D03*
X172500000Y-77300000D03*
X148500000Y-61300000D03*
X140500000Y-109300000D03*
X124500000Y-61300000D03*
X172500000Y-93300000D03*
X172500000Y-117300000D03*
X132500000Y-69300000D03*
X140500000Y-85300000D03*
X124500000Y-101300000D03*
X132500000Y-77300000D03*
X132500000Y-61300000D03*
X132500000Y-117300000D03*
X148500000Y-93300000D03*
X156500000Y-109300000D03*
X164500000Y-77300000D03*
X124500000Y-117300000D03*
X148500000Y-117300000D03*
X148500000Y-77300000D03*
X124500000Y-109300000D03*
X156500000Y-117300000D03*
%TD*%
D28*
%TO.N,+1V8*%
X151300000Y-100325000D02*
X134859214Y-100325000D01*
D29*
X152643553Y-101668553D02*
X151300000Y-100325000D01*
X154500000Y-104892500D02*
X152936446Y-103328946D01*
X152790000Y-102975393D02*
X152790000Y-102022107D01*
D28*
X134152107Y-100032107D02*
X124500000Y-90380000D01*
X134152100Y-100032114D02*
G75*
G03*
X134859214Y-100325000I707100J707114D01*
G01*
D29*
X152790005Y-102975393D02*
G75*
G03*
X152936446Y-103328946I499995J-7D01*
G01*
X152789995Y-102022107D02*
G75*
G03*
X152643553Y-101668553I-499995J7D01*
G01*
D28*
%TO.N,/VG*%
X149675000Y-97300000D02*
X137967893Y-85592893D01*
X137260786Y-85300000D02*
X124500000Y-85300000D01*
X137967900Y-85592886D02*
G75*
G03*
X137260786Y-85300000I-707100J-707114D01*
G01*
%TO.N,/VG_GATED*%
X151325000Y-94350000D02*
X151275000Y-94300000D01*
D29*
X155300000Y-104092500D02*
X154849607Y-104092500D01*
D28*
X151325000Y-97300000D02*
X151325000Y-94350000D01*
D29*
X153650000Y-102892893D02*
X153650000Y-97330000D01*
D28*
X151325000Y-97300000D02*
X154275000Y-97300000D01*
D29*
X154496053Y-103946053D02*
X153796446Y-103246446D01*
X154496050Y-103946056D02*
G75*
G03*
X154849607Y-104092500I353550J353556D01*
G01*
X153650005Y-102892893D02*
G75*
G03*
X153796446Y-103246446I499995J-7D01*
G01*
D28*
%TO.N,Net-(J3-In)*%
X124500000Y-105300000D02*
X134475000Y-105300000D01*
%TO.N,/OUT*%
X155900000Y-94275000D02*
X155875000Y-94300000D01*
X155900000Y-97300000D02*
X155900000Y-100287500D01*
X155900000Y-94300000D02*
X155900000Y-97250000D01*
X155900000Y-91325000D02*
X155900000Y-94275000D01*
X155900000Y-100370000D02*
X155900000Y-104100000D01*
X155912500Y-100300000D02*
X155842500Y-100370000D01*
X155875000Y-97250000D02*
X155925000Y-97300000D01*
%TO.N,Net-(Z3-Pad2)*%
X146700000Y-105300000D02*
X149650000Y-105300000D01*
X143725000Y-105300000D02*
X146675000Y-105300000D01*
X146675000Y-105300000D02*
X146700000Y-105325000D01*
D29*
%TO.N,/IN*%
X154500000Y-105292500D02*
X153842500Y-105292500D01*
D28*
X151325000Y-105300000D02*
X154112500Y-105300000D01*
%TO.N,Net-(Z10-Pad2)*%
X155900000Y-82100000D02*
X155900000Y-85050000D01*
X155900000Y-79125000D02*
X155900000Y-82075000D01*
X155900000Y-82075000D02*
X155875000Y-82100000D01*
%TO.N,Net-(Z1-Pad2)*%
X139100000Y-105300000D02*
X142050000Y-105300000D01*
X139100000Y-105300000D02*
X136150000Y-105300000D01*
%TO.N,Net-(Z8-Pad1)*%
X155900000Y-86725000D02*
X155900000Y-89675000D01*
%TO.N,+3V3*%
X167600000Y-100300000D02*
X157487500Y-100300000D01*
%TO.N,Net-(J4-In)*%
X155900000Y-74500000D02*
X155900000Y-77450000D01*
X155900000Y-64500000D02*
X155900000Y-74475000D01*
X155900000Y-74475000D02*
X155875000Y-74500000D01*
%TD*%
%TA.AperFunction,Conductor*%
%TO.N,/VG_GATED*%
G36*
X151500358Y-96428427D02*
G01*
X151502945Y-96432348D01*
X151706765Y-96940950D01*
X151706662Y-96949904D01*
X151703809Y-96953929D01*
X151332904Y-97293758D01*
X151324489Y-97296820D01*
X151317096Y-97293758D01*
X150946190Y-96953929D01*
X150942405Y-96945813D01*
X150943233Y-96940953D01*
X151147055Y-96432347D01*
X151153313Y-96425943D01*
X151157915Y-96425000D01*
X151492085Y-96425000D01*
X151500358Y-96428427D01*
G37*
%TD.AperFunction*%
%TD*%
%TA.AperFunction,Conductor*%
%TO.N,Net-(Z10-Pad2)*%
G36*
X155882902Y-82106240D02*
G01*
X156253547Y-82445830D01*
X156254071Y-82446310D01*
X156257856Y-82454426D01*
X156257200Y-82458831D01*
X156077755Y-82967194D01*
X156071770Y-82973855D01*
X156066722Y-82975000D01*
X155732575Y-82975000D01*
X155724302Y-82971573D01*
X155721900Y-82968088D01*
X155493681Y-82459245D01*
X155493422Y-82450294D01*
X155496450Y-82445832D01*
X155867097Y-82106240D01*
X155875511Y-82103179D01*
X155882902Y-82106240D01*
G37*
%TD.AperFunction*%
%TD*%
%TA.AperFunction,Conductor*%
%TO.N,GND*%
G36*
X170356421Y-114802868D02*
G01*
X170294601Y-114761561D01*
X170221680Y-114747056D01*
X170172432Y-114747056D01*
X170099511Y-114761561D01*
X170016816Y-114816816D01*
X169961561Y-114899511D01*
X169942158Y-114997056D01*
X169961561Y-115094601D01*
X170002867Y-115156420D01*
X169444180Y-114597733D01*
X169634870Y-114434870D01*
X169797733Y-114244180D01*
X170356421Y-114802868D01*
G37*
%TD.AperFunction*%
%TA.AperFunction,Conductor*%
G36*
X167365130Y-114434870D02*
G01*
X167555819Y-114597733D01*
X166997135Y-115156416D01*
X167038439Y-115094601D01*
X167057842Y-114997056D01*
X167038439Y-114899511D01*
X166983184Y-114816816D01*
X166900489Y-114761561D01*
X166827568Y-114747056D01*
X166778320Y-114747056D01*
X166705399Y-114761561D01*
X166643577Y-114802868D01*
X167202266Y-114244180D01*
X167365130Y-114434870D01*
G37*
%TD.AperFunction*%
%TA.AperFunction,Conductor*%
G36*
X167555819Y-112002266D02*
G01*
X167365130Y-112165130D01*
X167202266Y-112355818D01*
X166643582Y-111797134D01*
X166705399Y-111838439D01*
X166778320Y-111852944D01*
X166827568Y-111852944D01*
X166900489Y-111838439D01*
X166983184Y-111783184D01*
X167038439Y-111700489D01*
X167057842Y-111602944D01*
X167038439Y-111505399D01*
X166997133Y-111443581D01*
X167555819Y-112002266D01*
G37*
%TD.AperFunction*%
%TA.AperFunction,Conductor*%
G36*
X169961561Y-111505399D02*
G01*
X169942158Y-111602944D01*
X169961561Y-111700489D01*
X170016816Y-111783184D01*
X170099511Y-111838439D01*
X170172432Y-111852944D01*
X170221680Y-111852944D01*
X170294601Y-111838439D01*
X170356415Y-111797135D01*
X169797732Y-112355818D01*
X169634870Y-112165130D01*
X169444180Y-112002266D01*
X170002867Y-111443578D01*
X169961561Y-111505399D01*
G37*
%TD.AperFunction*%
%TA.AperFunction,Conductor*%
G36*
X170356421Y-66802868D02*
G01*
X170294601Y-66761561D01*
X170221680Y-66747056D01*
X170172432Y-66747056D01*
X170099511Y-66761561D01*
X170016816Y-66816816D01*
X169961561Y-66899511D01*
X169942158Y-66997056D01*
X169961561Y-67094601D01*
X170002867Y-67156420D01*
X169444180Y-66597733D01*
X169634870Y-66434870D01*
X169797733Y-66244180D01*
X170356421Y-66802868D01*
G37*
%TD.AperFunction*%
%TA.AperFunction,Conductor*%
G36*
X167365130Y-66434870D02*
G01*
X167555819Y-66597733D01*
X166997135Y-67156416D01*
X167038439Y-67094601D01*
X167057842Y-66997056D01*
X167038439Y-66899511D01*
X166983184Y-66816816D01*
X166900489Y-66761561D01*
X166827568Y-66747056D01*
X166778320Y-66747056D01*
X166705399Y-66761561D01*
X166643577Y-66802868D01*
X167202266Y-66244180D01*
X167365130Y-66434870D01*
G37*
%TD.AperFunction*%
%TA.AperFunction,Conductor*%
G36*
X167555819Y-64002266D02*
G01*
X167365130Y-64165130D01*
X167202266Y-64355818D01*
X166643582Y-63797134D01*
X166705399Y-63838439D01*
X166778320Y-63852944D01*
X166827568Y-63852944D01*
X166900489Y-63838439D01*
X166983184Y-63783184D01*
X167038439Y-63700489D01*
X167057842Y-63602944D01*
X167038439Y-63505399D01*
X166997133Y-63443581D01*
X167555819Y-64002266D01*
G37*
%TD.AperFunction*%
%TA.AperFunction,Conductor*%
G36*
X169961561Y-63505399D02*
G01*
X169942158Y-63602944D01*
X169961561Y-63700489D01*
X170016816Y-63783184D01*
X170099511Y-63838439D01*
X170172432Y-63852944D01*
X170221680Y-63852944D01*
X170294601Y-63838439D01*
X170356415Y-63797135D01*
X169797732Y-64355818D01*
X169634870Y-64165130D01*
X169444180Y-64002266D01*
X170002867Y-63443578D01*
X169961561Y-63505399D01*
G37*
%TD.AperFunction*%
%TA.AperFunction,Conductor*%
G36*
X173002019Y-60000633D02*
G01*
X173037198Y-60002938D01*
X173083708Y-60005986D01*
X173265459Y-60018985D01*
X173273100Y-60020015D01*
X173366738Y-60038641D01*
X173389420Y-60043153D01*
X173415023Y-60048722D01*
X173533666Y-60074531D01*
X173540383Y-60076395D01*
X173659437Y-60116809D01*
X173756671Y-60153076D01*
X173791741Y-60166157D01*
X173797499Y-60168643D01*
X173912952Y-60225578D01*
X174034906Y-60292170D01*
X174039634Y-60295032D01*
X174086586Y-60326404D01*
X174146649Y-60366537D01*
X174149358Y-60368454D01*
X174258652Y-60450271D01*
X174262345Y-60453265D01*
X174359502Y-60538469D01*
X174362448Y-60541228D01*
X174458769Y-60637549D01*
X174461526Y-60640492D01*
X174546729Y-60737648D01*
X174549732Y-60741353D01*
X174601564Y-60810592D01*
X174631543Y-60850639D01*
X174633461Y-60853349D01*
X174704962Y-60960357D01*
X174707828Y-60965091D01*
X174774421Y-61087047D01*
X174831355Y-61202499D01*
X174833841Y-61208257D01*
X174870212Y-61305768D01*
X174883201Y-61340592D01*
X174923597Y-61459596D01*
X174925472Y-61466352D01*
X174956846Y-61610579D01*
X174979980Y-61726880D01*
X174981015Y-61734560D01*
X174994017Y-61916350D01*
X174999367Y-61997966D01*
X174999500Y-62002023D01*
X174999500Y-117997975D01*
X174999367Y-118002032D01*
X174994017Y-118083648D01*
X174981015Y-118265438D01*
X174979980Y-118273118D01*
X174956846Y-118389420D01*
X174925472Y-118533646D01*
X174923597Y-118540401D01*
X174889297Y-118641448D01*
X174883208Y-118659388D01*
X174883195Y-118659425D01*
X174833841Y-118791741D01*
X174831355Y-118797499D01*
X174774421Y-118912952D01*
X174707828Y-119034907D01*
X174704961Y-119039641D01*
X174633461Y-119146649D01*
X174631543Y-119149359D01*
X174549744Y-119258631D01*
X174546723Y-119262357D01*
X174461529Y-119359502D01*
X174458755Y-119362464D01*
X174362464Y-119458755D01*
X174359502Y-119461529D01*
X174262357Y-119546723D01*
X174258631Y-119549744D01*
X174149359Y-119631543D01*
X174146649Y-119633461D01*
X174039641Y-119704961D01*
X174034907Y-119707828D01*
X173912952Y-119774421D01*
X173797499Y-119831355D01*
X173791741Y-119833841D01*
X173670956Y-119878893D01*
X173659418Y-119883197D01*
X173540401Y-119923597D01*
X173533646Y-119925472D01*
X173389420Y-119956846D01*
X173273118Y-119979980D01*
X173265438Y-119981015D01*
X173083648Y-119994017D01*
X173032582Y-119997364D01*
X173002025Y-119999367D01*
X172997976Y-119999500D01*
X122002024Y-119999500D01*
X121997974Y-119999367D01*
X121959954Y-119996875D01*
X121916350Y-119994017D01*
X121734560Y-119981015D01*
X121726880Y-119979980D01*
X121610579Y-119956846D01*
X121466352Y-119925472D01*
X121459596Y-119923597D01*
X121427881Y-119912831D01*
X121340578Y-119883196D01*
X121305768Y-119870212D01*
X121208257Y-119833841D01*
X121202499Y-119831355D01*
X121087047Y-119774421D01*
X120965091Y-119707828D01*
X120960357Y-119704962D01*
X120853349Y-119633461D01*
X120850639Y-119631543D01*
X120810592Y-119601564D01*
X120741353Y-119549732D01*
X120737648Y-119546729D01*
X120640492Y-119461526D01*
X120637549Y-119458769D01*
X120541228Y-119362448D01*
X120538469Y-119359502D01*
X120505450Y-119321851D01*
X120453265Y-119262345D01*
X120450271Y-119258652D01*
X120368454Y-119149358D01*
X120366537Y-119146649D01*
X120295036Y-119039641D01*
X120292170Y-119034906D01*
X120225578Y-118912952D01*
X120168643Y-118797499D01*
X120166157Y-118791741D01*
X120153076Y-118756671D01*
X120116805Y-118659425D01*
X120076395Y-118540383D01*
X120074531Y-118533666D01*
X120043153Y-118389420D01*
X120038641Y-118366738D01*
X120020015Y-118273100D01*
X120018985Y-118265459D01*
X120005986Y-118083708D01*
X120002938Y-118037198D01*
X120000633Y-118002019D01*
X120000500Y-117997964D01*
X120000500Y-108219826D01*
X120020185Y-108152787D01*
X120072989Y-108107032D01*
X120142147Y-108097088D01*
X120205703Y-108126113D01*
X120243477Y-108184891D01*
X120245391Y-108192234D01*
X120283058Y-108357270D01*
X120378883Y-108601426D01*
X120378882Y-108601426D01*
X120510030Y-108828577D01*
X120557873Y-108888571D01*
X121208766Y-108237678D01*
X121252316Y-108319822D01*
X121372009Y-108460735D01*
X121519195Y-108572623D01*
X121561402Y-108592150D01*
X120910831Y-109242720D01*
X121082546Y-109359793D01*
X121082550Y-109359795D01*
X121318854Y-109473594D01*
X121318858Y-109473595D01*
X121569494Y-109550907D01*
X121569500Y-109550909D01*
X121828848Y-109589999D01*
X121828857Y-109590000D01*
X122091143Y-109590000D01*
X122091151Y-109589999D01*
X122350499Y-109550909D01*
X122350505Y-109550907D01*
X122601143Y-109473595D01*
X122837445Y-109359798D01*
X122837456Y-109359791D01*
X123009167Y-109242720D01*
X122358609Y-108592161D01*
X122477431Y-108520669D01*
X122611658Y-108393523D01*
X122714861Y-108241308D01*
X123362124Y-108888571D01*
X123409974Y-108828570D01*
X123541116Y-108601426D01*
X123636941Y-108357270D01*
X123695306Y-108101550D01*
X123695307Y-108101545D01*
X123714907Y-107840004D01*
X123714907Y-107839995D01*
X123695307Y-107578454D01*
X123695306Y-107578449D01*
X123666353Y-107451592D01*
X123670627Y-107381853D01*
X123711925Y-107325496D01*
X123777137Y-107300413D01*
X123787244Y-107300000D01*
X125212756Y-107300000D01*
X125279795Y-107319685D01*
X125325550Y-107372489D01*
X125335494Y-107441647D01*
X125333647Y-107451592D01*
X125304693Y-107578449D01*
X125304692Y-107578454D01*
X125285093Y-107839995D01*
X125285093Y-107840004D01*
X125304692Y-108101545D01*
X125304693Y-108101550D01*
X125363058Y-108357270D01*
X125458883Y-108601426D01*
X125458882Y-108601426D01*
X125590030Y-108828577D01*
X125637873Y-108888571D01*
X126288766Y-108237678D01*
X126332316Y-108319822D01*
X126452009Y-108460735D01*
X126599195Y-108572623D01*
X126641402Y-108592150D01*
X125990831Y-109242720D01*
X126162546Y-109359793D01*
X126162550Y-109359795D01*
X126398854Y-109473594D01*
X126398858Y-109473595D01*
X126649494Y-109550907D01*
X126649500Y-109550909D01*
X126908848Y-109589999D01*
X126908857Y-109590000D01*
X127171251Y-109590000D01*
X127238290Y-109609685D01*
X127284045Y-109662489D01*
X127293989Y-109731647D01*
X127264964Y-109795203D01*
X127215689Y-109829764D01*
X126993005Y-109915244D01*
X126647456Y-110091310D01*
X126322206Y-110302531D01*
X126064648Y-110511095D01*
X126064648Y-110511096D01*
X126962306Y-111408754D01*
X126900489Y-111367449D01*
X126827568Y-111352944D01*
X126778320Y-111352944D01*
X126705399Y-111367449D01*
X126622704Y-111422704D01*
X126567449Y-111505399D01*
X126548046Y-111602944D01*
X126567449Y-111700489D01*
X126608753Y-111762305D01*
X125711096Y-110864648D01*
X125711095Y-110864648D01*
X125502531Y-111122206D01*
X125291310Y-111447456D01*
X125115244Y-111793005D01*
X124976262Y-112155063D01*
X124875887Y-112529669D01*
X124875886Y-112529676D01*
X124815219Y-112912712D01*
X124794922Y-113299999D01*
X124794922Y-113300000D01*
X124815219Y-113687287D01*
X124875886Y-114070323D01*
X124875887Y-114070330D01*
X124976262Y-114444936D01*
X125115244Y-114806994D01*
X125291310Y-115152543D01*
X125502531Y-115477793D01*
X125711095Y-115735350D01*
X125711096Y-115735350D01*
X126608756Y-114837689D01*
X126567449Y-114899511D01*
X126548046Y-114997056D01*
X126567449Y-115094601D01*
X126622704Y-115177296D01*
X126705399Y-115232551D01*
X126778320Y-115247056D01*
X126827568Y-115247056D01*
X126900489Y-115232551D01*
X126962304Y-115191247D01*
X126064648Y-116088903D01*
X126064649Y-116088904D01*
X126322206Y-116297468D01*
X126647456Y-116508689D01*
X126993005Y-116684755D01*
X127355063Y-116823737D01*
X127729669Y-116924112D01*
X127729676Y-116924113D01*
X128112712Y-116984780D01*
X128499999Y-117005078D01*
X128500001Y-117005078D01*
X128887287Y-116984780D01*
X129270323Y-116924113D01*
X129270330Y-116924112D01*
X129644936Y-116823737D01*
X130006994Y-116684755D01*
X130352543Y-116508689D01*
X130677783Y-116297476D01*
X130677785Y-116297475D01*
X130935349Y-116088902D01*
X130037691Y-115191244D01*
X130099511Y-115232551D01*
X130172432Y-115247056D01*
X130221680Y-115247056D01*
X130294601Y-115232551D01*
X130377296Y-115177296D01*
X130432551Y-115094601D01*
X130451954Y-114997056D01*
X130432551Y-114899511D01*
X130391245Y-114837692D01*
X131288902Y-115735349D01*
X131497475Y-115477785D01*
X131497476Y-115477783D01*
X131708689Y-115152543D01*
X131884755Y-114806994D01*
X132023737Y-114444936D01*
X132124112Y-114070330D01*
X132124113Y-114070323D01*
X132184780Y-113687287D01*
X132205078Y-113300000D01*
X164794922Y-113300000D01*
X164815219Y-113687287D01*
X164875886Y-114070323D01*
X164875887Y-114070330D01*
X164976262Y-114444936D01*
X165115244Y-114806994D01*
X165291310Y-115152543D01*
X165502531Y-115477793D01*
X165711095Y-115735350D01*
X165711096Y-115735350D01*
X166608756Y-114837689D01*
X166567449Y-114899511D01*
X166548046Y-114997056D01*
X166567449Y-115094601D01*
X166622704Y-115177296D01*
X166705399Y-115232551D01*
X166778320Y-115247056D01*
X166827568Y-115247056D01*
X166900489Y-115232551D01*
X166962304Y-115191247D01*
X166064648Y-116088903D01*
X166064649Y-116088904D01*
X166322206Y-116297468D01*
X166647456Y-116508689D01*
X166993005Y-116684755D01*
X167355063Y-116823737D01*
X167729669Y-116924112D01*
X167729676Y-116924113D01*
X168112712Y-116984780D01*
X168499999Y-117005078D01*
X168500001Y-117005078D01*
X168887287Y-116984780D01*
X169270323Y-116924113D01*
X169270330Y-116924112D01*
X169644936Y-116823737D01*
X170006994Y-116684755D01*
X170352543Y-116508689D01*
X170677783Y-116297476D01*
X170677785Y-116297475D01*
X170935349Y-116088902D01*
X170037691Y-115191244D01*
X170099511Y-115232551D01*
X170172432Y-115247056D01*
X170221680Y-115247056D01*
X170294601Y-115232551D01*
X170377296Y-115177296D01*
X170432551Y-115094601D01*
X170451954Y-114997056D01*
X170432551Y-114899511D01*
X170391243Y-114837690D01*
X171288902Y-115735349D01*
X171497475Y-115477785D01*
X171497476Y-115477783D01*
X171708689Y-115152543D01*
X171884755Y-114806994D01*
X172023737Y-114444936D01*
X172124112Y-114070330D01*
X172124113Y-114070323D01*
X172184780Y-113687287D01*
X172205078Y-113300000D01*
X172205078Y-113299999D01*
X172184780Y-112912712D01*
X172124113Y-112529676D01*
X172124112Y-112529669D01*
X172023737Y-112155063D01*
X171884755Y-111793005D01*
X171708689Y-111447456D01*
X171497468Y-111122206D01*
X171288904Y-110864649D01*
X171288903Y-110864648D01*
X170391247Y-111762303D01*
X170432551Y-111700489D01*
X170451954Y-111602944D01*
X170432551Y-111505399D01*
X170377296Y-111422704D01*
X170294601Y-111367449D01*
X170221680Y-111352944D01*
X170172432Y-111352944D01*
X170099511Y-111367449D01*
X170037690Y-111408755D01*
X170935350Y-110511096D01*
X170935350Y-110511095D01*
X170677793Y-110302531D01*
X170352543Y-110091310D01*
X170006994Y-109915244D01*
X169644936Y-109776262D01*
X169270330Y-109675887D01*
X169270323Y-109675886D01*
X168887287Y-109615219D01*
X168500001Y-109594922D01*
X168499999Y-109594922D01*
X168112712Y-109615219D01*
X167729676Y-109675886D01*
X167729669Y-109675887D01*
X167355063Y-109776262D01*
X166993005Y-109915244D01*
X166647456Y-110091310D01*
X166322206Y-110302531D01*
X166064648Y-110511095D01*
X166064648Y-110511096D01*
X166962306Y-111408754D01*
X166900489Y-111367449D01*
X166827568Y-111352944D01*
X166778320Y-111352944D01*
X166705399Y-111367449D01*
X166622704Y-111422704D01*
X166567449Y-111505399D01*
X166548046Y-111602944D01*
X166567449Y-111700489D01*
X166608753Y-111762305D01*
X165711096Y-110864648D01*
X165711095Y-110864648D01*
X165502531Y-111122206D01*
X165291310Y-111447456D01*
X165115244Y-111793005D01*
X164976262Y-112155063D01*
X164875887Y-112529669D01*
X164875886Y-112529676D01*
X164815219Y-112912712D01*
X164794922Y-113299999D01*
X164794922Y-113300000D01*
X132205078Y-113300000D01*
X132205078Y-113299999D01*
X132184780Y-112912712D01*
X132124113Y-112529676D01*
X132124112Y-112529669D01*
X132023737Y-112155063D01*
X131884755Y-111793005D01*
X131708689Y-111447456D01*
X131497468Y-111122206D01*
X131288904Y-110864649D01*
X131288903Y-110864648D01*
X130391247Y-111762303D01*
X130432551Y-111700489D01*
X130451954Y-111602944D01*
X130432551Y-111505399D01*
X130377296Y-111422704D01*
X130294601Y-111367449D01*
X130221680Y-111352944D01*
X130172432Y-111352944D01*
X130099511Y-111367449D01*
X130037690Y-111408755D01*
X130935350Y-110511096D01*
X130935350Y-110511095D01*
X130677793Y-110302531D01*
X130352543Y-110091310D01*
X130006994Y-109915244D01*
X129644936Y-109776262D01*
X129270330Y-109675887D01*
X129270323Y-109675886D01*
X128887287Y-109615219D01*
X128500001Y-109594922D01*
X128499999Y-109594922D01*
X128112712Y-109615219D01*
X127865141Y-109654430D01*
X127795847Y-109645475D01*
X127742395Y-109600479D01*
X127721756Y-109533727D01*
X127740481Y-109466414D01*
X127791942Y-109420237D01*
X127917446Y-109359798D01*
X127917456Y-109359791D01*
X128089167Y-109242720D01*
X127438609Y-108592161D01*
X127557431Y-108520669D01*
X127691658Y-108393523D01*
X127794861Y-108241308D01*
X128442124Y-108888571D01*
X128489974Y-108828570D01*
X128621116Y-108601426D01*
X128716941Y-108357270D01*
X128775306Y-108101550D01*
X128775307Y-108101545D01*
X128794907Y-107840004D01*
X128794907Y-107839995D01*
X128775307Y-107578454D01*
X128775306Y-107578449D01*
X128746353Y-107451592D01*
X128750627Y-107381853D01*
X128791925Y-107325496D01*
X128857137Y-107300413D01*
X128867244Y-107300000D01*
X157899999Y-107300000D01*
X157900000Y-107300000D01*
X157900000Y-105380001D01*
X165594891Y-105380001D01*
X165615300Y-105665362D01*
X165676109Y-105944895D01*
X165776091Y-106212958D01*
X165913191Y-106464038D01*
X165913196Y-106464046D01*
X166019882Y-106606561D01*
X166019883Y-106606562D01*
X166915195Y-105711250D01*
X166937340Y-105762587D01*
X167043433Y-105905094D01*
X167179530Y-106019294D01*
X167269216Y-106064335D01*
X166373436Y-106960115D01*
X166515960Y-107066807D01*
X166515961Y-107066808D01*
X166767042Y-107203908D01*
X166767041Y-107203908D01*
X167035104Y-107303890D01*
X167314637Y-107364699D01*
X167599999Y-107385109D01*
X167600001Y-107385109D01*
X167885362Y-107364699D01*
X168164895Y-107303890D01*
X168432958Y-107203908D01*
X168684047Y-107066803D01*
X168826561Y-106960116D01*
X168826562Y-106960115D01*
X167933748Y-106067300D01*
X167943409Y-106063784D01*
X168091844Y-105966157D01*
X168213764Y-105836930D01*
X168285768Y-105712215D01*
X169180115Y-106606562D01*
X169180116Y-106606561D01*
X169286803Y-106464047D01*
X169423908Y-106212958D01*
X169523890Y-105944895D01*
X169584699Y-105665362D01*
X169605109Y-105380001D01*
X169605109Y-105379998D01*
X169584699Y-105094637D01*
X169523890Y-104815104D01*
X169423908Y-104547041D01*
X169286808Y-104295961D01*
X169286807Y-104295960D01*
X169180115Y-104153436D01*
X168284803Y-105048747D01*
X168262660Y-104997413D01*
X168156567Y-104854906D01*
X168020470Y-104740706D01*
X167930782Y-104695663D01*
X168826562Y-103799883D01*
X168826561Y-103799882D01*
X168684046Y-103693196D01*
X168684038Y-103693191D01*
X168432957Y-103556091D01*
X168432958Y-103556091D01*
X168164895Y-103456109D01*
X167885362Y-103395300D01*
X167600001Y-103374891D01*
X167599999Y-103374891D01*
X167314637Y-103395300D01*
X167035104Y-103456109D01*
X166767041Y-103556091D01*
X166515961Y-103693191D01*
X166515953Y-103693196D01*
X166373437Y-103799882D01*
X166373436Y-103799883D01*
X167266252Y-104692699D01*
X167256591Y-104696216D01*
X167108156Y-104793843D01*
X166986236Y-104923070D01*
X166914231Y-105047784D01*
X166019883Y-104153436D01*
X166019882Y-104153437D01*
X165913196Y-104295953D01*
X165913191Y-104295961D01*
X165776091Y-104547041D01*
X165676109Y-104815104D01*
X165615300Y-105094637D01*
X165594891Y-105379998D01*
X165594891Y-105380001D01*
X157900000Y-105380001D01*
X157900000Y-101060902D01*
X157919684Y-100993867D01*
X157969896Y-100949332D01*
X158405866Y-100737926D01*
X158459969Y-100725500D01*
X164957601Y-100725500D01*
X165024640Y-100745185D01*
X165036509Y-100753847D01*
X165668009Y-101274835D01*
X165804412Y-101387367D01*
X165843597Y-101445214D01*
X165849500Y-101483017D01*
X165849500Y-101824678D01*
X165864032Y-101897735D01*
X165864033Y-101897739D01*
X165864034Y-101897740D01*
X165919399Y-101980601D01*
X166002259Y-102035966D01*
X166002260Y-102035966D01*
X166002264Y-102035967D01*
X166075321Y-102050499D01*
X166075324Y-102050500D01*
X166075326Y-102050500D01*
X169124676Y-102050500D01*
X169124677Y-102050499D01*
X169197740Y-102035966D01*
X169280601Y-101980601D01*
X169335966Y-101897740D01*
X169350500Y-101824674D01*
X169350500Y-98775326D01*
X169350500Y-98775323D01*
X169350499Y-98775321D01*
X169335967Y-98702264D01*
X169335966Y-98702260D01*
X169335965Y-98702259D01*
X169280601Y-98619399D01*
X169197740Y-98564034D01*
X169197739Y-98564033D01*
X169197735Y-98564032D01*
X169124677Y-98549500D01*
X169124674Y-98549500D01*
X166075326Y-98549500D01*
X166075323Y-98549500D01*
X166002264Y-98564032D01*
X166002260Y-98564033D01*
X165919399Y-98619399D01*
X165864033Y-98702260D01*
X165864032Y-98702264D01*
X165849500Y-98775321D01*
X165849500Y-99116980D01*
X165829815Y-99184019D01*
X165804412Y-99212630D01*
X165672518Y-99321443D01*
X165072390Y-99816550D01*
X165036511Y-99846150D01*
X164972271Y-99873629D01*
X164957599Y-99874500D01*
X158459971Y-99874500D01*
X158405867Y-99862074D01*
X157969895Y-99650665D01*
X157918162Y-99603702D01*
X157900000Y-99539094D01*
X157900000Y-95344903D01*
X157919684Y-95277868D01*
X157972488Y-95232113D01*
X157987110Y-95226521D01*
X158014398Y-95218017D01*
X158159877Y-95130072D01*
X158280072Y-95009877D01*
X158368019Y-94864395D01*
X158418590Y-94702106D01*
X158425000Y-94631572D01*
X158425000Y-94550000D01*
X157900000Y-94550000D01*
X157900000Y-94050000D01*
X158424999Y-94050000D01*
X158424999Y-93968417D01*
X158418591Y-93897897D01*
X158418590Y-93897892D01*
X158368018Y-93735603D01*
X158280072Y-93590122D01*
X158159877Y-93469927D01*
X158014396Y-93381981D01*
X158014394Y-93381980D01*
X157987108Y-93373477D01*
X157928960Y-93334739D01*
X157900987Y-93270713D01*
X157900000Y-93255107D01*
X157900000Y-83144903D01*
X157919684Y-83077868D01*
X157972488Y-83032113D01*
X157987110Y-83026521D01*
X158014398Y-83018017D01*
X158159877Y-82930072D01*
X158280072Y-82809877D01*
X158368019Y-82664395D01*
X158418590Y-82502106D01*
X158425000Y-82431572D01*
X158425000Y-82350000D01*
X157900000Y-82350000D01*
X157900000Y-81850000D01*
X158424999Y-81850000D01*
X158424999Y-81768417D01*
X158418591Y-81697897D01*
X158418590Y-81697892D01*
X158368018Y-81535603D01*
X158280072Y-81390122D01*
X158159877Y-81269927D01*
X158014396Y-81181981D01*
X158014394Y-81181980D01*
X157987108Y-81173477D01*
X157928960Y-81134739D01*
X157900987Y-81070713D01*
X157900000Y-81055107D01*
X157900000Y-75544903D01*
X157919684Y-75477868D01*
X157972488Y-75432113D01*
X157987110Y-75426521D01*
X158014398Y-75418017D01*
X158159877Y-75330072D01*
X158280072Y-75209877D01*
X158368019Y-75064395D01*
X158418590Y-74902106D01*
X158425000Y-74831572D01*
X158425000Y-74750000D01*
X157900000Y-74750000D01*
X157900000Y-74250000D01*
X158424999Y-74250000D01*
X158424999Y-74168417D01*
X158418591Y-74097897D01*
X158418590Y-74097892D01*
X158368018Y-73935603D01*
X158280072Y-73790122D01*
X158159877Y-73669927D01*
X158014396Y-73581981D01*
X158014394Y-73581980D01*
X157987108Y-73573477D01*
X157928960Y-73534739D01*
X157900987Y-73470713D01*
X157900000Y-73455107D01*
X157900000Y-68872274D01*
X157919684Y-68805239D01*
X157972488Y-68759484D01*
X158041646Y-68749540D01*
X158046949Y-68750524D01*
X158308848Y-68789999D01*
X158308857Y-68790000D01*
X158571143Y-68790000D01*
X158571151Y-68789999D01*
X158830499Y-68750909D01*
X158830505Y-68750907D01*
X159081143Y-68673595D01*
X159317445Y-68559798D01*
X159317456Y-68559791D01*
X159489167Y-68442720D01*
X158838609Y-67792162D01*
X158957431Y-67720669D01*
X159091658Y-67593523D01*
X159194861Y-67441308D01*
X159842124Y-68088571D01*
X159889974Y-68028570D01*
X160021116Y-67801426D01*
X160116941Y-67557270D01*
X160175306Y-67301550D01*
X160175307Y-67301545D01*
X160194907Y-67040004D01*
X160194907Y-67039995D01*
X160175307Y-66778454D01*
X160175306Y-66778449D01*
X160116941Y-66522729D01*
X160021116Y-66278573D01*
X160021117Y-66278573D01*
X159889971Y-66051426D01*
X159842125Y-65991427D01*
X159191232Y-66642319D01*
X159147684Y-66560178D01*
X159027991Y-66419265D01*
X158880805Y-66307377D01*
X158838596Y-66287849D01*
X159489167Y-65637278D01*
X159317447Y-65520202D01*
X159317445Y-65520201D01*
X159081142Y-65406404D01*
X159081144Y-65406404D01*
X158830505Y-65329092D01*
X158830499Y-65329090D01*
X158637497Y-65300000D01*
X164794922Y-65300000D01*
X164815219Y-65687287D01*
X164875886Y-66070323D01*
X164875887Y-66070330D01*
X164976262Y-66444936D01*
X165115244Y-66806994D01*
X165291310Y-67152543D01*
X165502531Y-67477793D01*
X165711095Y-67735350D01*
X165711096Y-67735350D01*
X166608756Y-66837689D01*
X166567449Y-66899511D01*
X166548046Y-66997056D01*
X166567449Y-67094601D01*
X166622704Y-67177296D01*
X166705399Y-67232551D01*
X166778320Y-67247056D01*
X166827568Y-67247056D01*
X166900489Y-67232551D01*
X166962304Y-67191247D01*
X166064648Y-68088903D01*
X166064649Y-68088904D01*
X166322206Y-68297468D01*
X166647456Y-68508689D01*
X166993005Y-68684755D01*
X167355063Y-68823737D01*
X167729669Y-68924112D01*
X167729676Y-68924113D01*
X168112712Y-68984780D01*
X168499999Y-69005078D01*
X168500001Y-69005078D01*
X168887287Y-68984780D01*
X169270323Y-68924113D01*
X169270330Y-68924112D01*
X169644936Y-68823737D01*
X170006994Y-68684755D01*
X170352543Y-68508689D01*
X170677783Y-68297476D01*
X170677785Y-68297475D01*
X170935349Y-68088902D01*
X170037691Y-67191244D01*
X170099511Y-67232551D01*
X170172432Y-67247056D01*
X170221680Y-67247056D01*
X170294601Y-67232551D01*
X170377296Y-67177296D01*
X170432551Y-67094601D01*
X170451954Y-66997056D01*
X170432551Y-66899511D01*
X170391243Y-66837690D01*
X171288902Y-67735349D01*
X171497475Y-67477785D01*
X171497476Y-67477783D01*
X171708689Y-67152543D01*
X171884755Y-66806994D01*
X172023737Y-66444936D01*
X172124112Y-66070330D01*
X172124113Y-66070323D01*
X172184780Y-65687287D01*
X172205078Y-65300000D01*
X172205078Y-65299999D01*
X172184780Y-64912712D01*
X172124113Y-64529676D01*
X172124112Y-64529669D01*
X172023737Y-64155063D01*
X171884755Y-63793005D01*
X171708689Y-63447456D01*
X171497468Y-63122206D01*
X171288904Y-62864649D01*
X171288903Y-62864648D01*
X170391247Y-63762303D01*
X170432551Y-63700489D01*
X170451954Y-63602944D01*
X170432551Y-63505399D01*
X170377296Y-63422704D01*
X170294601Y-63367449D01*
X170221680Y-63352944D01*
X170172432Y-63352944D01*
X170099511Y-63367449D01*
X170037690Y-63408755D01*
X170935350Y-62511096D01*
X170935350Y-62511095D01*
X170677793Y-62302531D01*
X170352543Y-62091310D01*
X170006994Y-61915244D01*
X169644936Y-61776262D01*
X169270330Y-61675887D01*
X169270323Y-61675886D01*
X168887287Y-61615219D01*
X168500001Y-61594922D01*
X168499999Y-61594922D01*
X168112712Y-61615219D01*
X167729676Y-61675886D01*
X167729669Y-61675887D01*
X167355063Y-61776262D01*
X166993005Y-61915244D01*
X166647456Y-62091310D01*
X166322206Y-62302531D01*
X166064648Y-62511095D01*
X166064648Y-62511096D01*
X166962306Y-63408754D01*
X166900489Y-63367449D01*
X166827568Y-63352944D01*
X166778320Y-63352944D01*
X166705399Y-63367449D01*
X166622704Y-63422704D01*
X166567449Y-63505399D01*
X166548046Y-63602944D01*
X166567449Y-63700489D01*
X166608753Y-63762305D01*
X165711096Y-62864648D01*
X165711095Y-62864648D01*
X165502531Y-63122206D01*
X165291310Y-63447456D01*
X165115244Y-63793005D01*
X164976262Y-64155063D01*
X164875887Y-64529669D01*
X164875886Y-64529676D01*
X164815219Y-64912712D01*
X164794922Y-65299999D01*
X164794922Y-65300000D01*
X158637497Y-65300000D01*
X158571151Y-65290000D01*
X158308848Y-65290000D01*
X158044908Y-65329783D01*
X158044669Y-65328197D01*
X157981810Y-65324323D01*
X157925468Y-65283004D01*
X157900409Y-65217782D01*
X157900000Y-65207721D01*
X157900000Y-63792278D01*
X157919685Y-63725239D01*
X157972489Y-63679484D01*
X158041647Y-63669540D01*
X158046940Y-63670523D01*
X158308848Y-63709999D01*
X158308857Y-63710000D01*
X158571143Y-63710000D01*
X158571151Y-63709999D01*
X158830499Y-63670909D01*
X158830505Y-63670907D01*
X159081143Y-63593595D01*
X159317445Y-63479798D01*
X159317456Y-63479791D01*
X159489167Y-63362720D01*
X158838609Y-62712162D01*
X158957431Y-62640669D01*
X159091658Y-62513523D01*
X159194861Y-62361308D01*
X159842124Y-63008571D01*
X159889974Y-62948570D01*
X160021116Y-62721426D01*
X160116941Y-62477270D01*
X160175306Y-62221550D01*
X160175307Y-62221545D01*
X160194907Y-61960004D01*
X160194907Y-61959995D01*
X160175307Y-61698454D01*
X160175306Y-61698449D01*
X160116941Y-61442729D01*
X160021116Y-61198573D01*
X160021117Y-61198573D01*
X159889971Y-60971426D01*
X159842125Y-60911427D01*
X159191232Y-61562319D01*
X159147684Y-61480178D01*
X159027991Y-61339265D01*
X158880805Y-61227377D01*
X158838596Y-61207849D01*
X159489167Y-60557278D01*
X159317447Y-60440202D01*
X159317445Y-60440201D01*
X159081142Y-60326404D01*
X159081144Y-60326404D01*
X158830505Y-60249092D01*
X158830499Y-60249090D01*
X158817391Y-60247115D01*
X158754034Y-60217659D01*
X158716660Y-60158625D01*
X158717135Y-60088757D01*
X158755308Y-60030237D01*
X158819060Y-60001645D01*
X158835872Y-60000500D01*
X160199901Y-60000500D01*
X172997964Y-60000500D01*
X173002019Y-60000633D01*
G37*
%TD.AperFunction*%
%TA.AperFunction,Conductor*%
G36*
X130356419Y-114802866D02*
G01*
X130294601Y-114761561D01*
X130221680Y-114747056D01*
X130172432Y-114747056D01*
X130099511Y-114761561D01*
X130016816Y-114816816D01*
X129961561Y-114899511D01*
X129942158Y-114997056D01*
X129961561Y-115094601D01*
X130002867Y-115156420D01*
X129444180Y-114597733D01*
X129634870Y-114434870D01*
X129797733Y-114244180D01*
X130356419Y-114802866D01*
G37*
%TD.AperFunction*%
%TA.AperFunction,Conductor*%
G36*
X127365130Y-114434870D02*
G01*
X127555819Y-114597733D01*
X126997135Y-115156416D01*
X127038439Y-115094601D01*
X127057842Y-114997056D01*
X127038439Y-114899511D01*
X126983184Y-114816816D01*
X126900489Y-114761561D01*
X126827568Y-114747056D01*
X126778320Y-114747056D01*
X126705399Y-114761561D01*
X126643577Y-114802868D01*
X127202266Y-114244180D01*
X127365130Y-114434870D01*
G37*
%TD.AperFunction*%
%TA.AperFunction,Conductor*%
G36*
X127555819Y-112002266D02*
G01*
X127365130Y-112165130D01*
X127202266Y-112355818D01*
X126643582Y-111797134D01*
X126705399Y-111838439D01*
X126778320Y-111852944D01*
X126827568Y-111852944D01*
X126900489Y-111838439D01*
X126983184Y-111783184D01*
X127038439Y-111700489D01*
X127057842Y-111602944D01*
X127038439Y-111505399D01*
X126997133Y-111443581D01*
X127555819Y-112002266D01*
G37*
%TD.AperFunction*%
%TA.AperFunction,Conductor*%
G36*
X129961561Y-111505399D02*
G01*
X129942158Y-111602944D01*
X129961561Y-111700489D01*
X130016816Y-111783184D01*
X130099511Y-111838439D01*
X130172432Y-111852944D01*
X130221680Y-111852944D01*
X130294601Y-111838439D01*
X130356415Y-111797135D01*
X129797732Y-112355818D01*
X129634870Y-112165130D01*
X129444180Y-112002266D01*
X130002867Y-111443578D01*
X129961561Y-111505399D01*
G37*
%TD.AperFunction*%
%TD*%
%TA.AperFunction,Conductor*%
%TO.N,Net-(Z10-Pad2)*%
G36*
X156076059Y-84278427D02*
G01*
X156078240Y-84281445D01*
X156295951Y-84714551D01*
X156296604Y-84723482D01*
X156293244Y-84728574D01*
X155907747Y-85069155D01*
X155899278Y-85072065D01*
X155892253Y-85069155D01*
X155506755Y-84728574D01*
X155502824Y-84720528D01*
X155504047Y-84714554D01*
X155721760Y-84281444D01*
X155728538Y-84275593D01*
X155732214Y-84275000D01*
X156067786Y-84275000D01*
X156076059Y-84278427D01*
G37*
%TD.AperFunction*%
%TD*%
%TA.AperFunction,Conductor*%
%TO.N,Net-(J3-In)*%
G36*
X134128575Y-104906755D02*
G01*
X134469155Y-105292253D01*
X134472065Y-105300722D01*
X134469155Y-105307747D01*
X134128575Y-105693244D01*
X134120529Y-105697175D01*
X134114552Y-105695951D01*
X133681445Y-105478239D01*
X133675593Y-105471461D01*
X133675000Y-105467785D01*
X133675000Y-105132214D01*
X133678427Y-105123941D01*
X133681443Y-105121760D01*
X134114554Y-104904047D01*
X134123483Y-104903395D01*
X134128575Y-104906755D01*
G37*
%TD.AperFunction*%
%TD*%
%TA.AperFunction,Conductor*%
%TO.N,Net-(Z3-Pad2)*%
G36*
X147058831Y-104942799D02*
G01*
X147235445Y-105005141D01*
X147567195Y-105122244D01*
X147573855Y-105128229D01*
X147575000Y-105133277D01*
X147575000Y-105467425D01*
X147571573Y-105475698D01*
X147568088Y-105478100D01*
X147059245Y-105706318D01*
X147050294Y-105706577D01*
X147045830Y-105703547D01*
X146706241Y-105332903D01*
X146703179Y-105324488D01*
X146706239Y-105317098D01*
X147046311Y-104945927D01*
X147054426Y-104942143D01*
X147058831Y-104942799D01*
G37*
%TD.AperFunction*%
%TD*%
%TA.AperFunction,Conductor*%
%TO.N,/VG*%
G36*
X149151939Y-96525611D02*
G01*
X149359329Y-96626776D01*
X149757660Y-96821085D01*
X149763592Y-96827791D01*
X149764025Y-96833774D01*
X149676885Y-97294476D01*
X149671980Y-97301969D01*
X149669843Y-97303121D01*
X149284720Y-97461683D01*
X149275766Y-97461664D01*
X149269984Y-97456447D01*
X148901121Y-96777116D01*
X148900185Y-96768210D01*
X148903128Y-96763262D01*
X149138537Y-96527853D01*
X149146809Y-96524427D01*
X149151939Y-96525611D01*
G37*
%TD.AperFunction*%
%TD*%
%TA.AperFunction,Conductor*%
%TO.N,Net-(Z3-Pad2)*%
G36*
X146350110Y-104943277D02*
G01*
X146353689Y-104945928D01*
X146693758Y-105317096D01*
X146696820Y-105325511D01*
X146693758Y-105332904D01*
X146354169Y-105703547D01*
X146346053Y-105707332D01*
X146340754Y-105706318D01*
X145831912Y-105478100D01*
X145825766Y-105471588D01*
X145825000Y-105467425D01*
X145825000Y-105133277D01*
X145828427Y-105125004D01*
X145832803Y-105122245D01*
X146341168Y-104942799D01*
X146350110Y-104943277D01*
G37*
%TD.AperFunction*%
%TD*%
%TA.AperFunction,Conductor*%
%TO.N,/OUT*%
G36*
X156075716Y-99390927D02*
G01*
X156078108Y-99394388D01*
X156329638Y-99951814D01*
X156329917Y-99960764D01*
X156326338Y-99965717D01*
X155919865Y-100295033D01*
X155911280Y-100297578D01*
X155905135Y-100295033D01*
X155498398Y-99965504D01*
X155494127Y-99957633D01*
X155494928Y-99951997D01*
X155722031Y-99394784D01*
X155728327Y-99388416D01*
X155732866Y-99387500D01*
X156067443Y-99387500D01*
X156075716Y-99390927D01*
G37*
%TD.AperFunction*%
%TD*%
%TA.AperFunction,Conductor*%
%TO.N,/OUT*%
G36*
X155882902Y-94306240D02*
G01*
X156253547Y-94645830D01*
X156254071Y-94646310D01*
X156257856Y-94654426D01*
X156257200Y-94658831D01*
X156077755Y-95167194D01*
X156071770Y-95173855D01*
X156066722Y-95175000D01*
X155732575Y-95175000D01*
X155724302Y-95171573D01*
X155721900Y-95168088D01*
X155493681Y-94659245D01*
X155493422Y-94650294D01*
X155496450Y-94645832D01*
X155867097Y-94306240D01*
X155875511Y-94303179D01*
X155882902Y-94306240D01*
G37*
%TD.AperFunction*%
%TD*%
%TA.AperFunction,Conductor*%
%TO.N,/OUT*%
G36*
X156074995Y-93428427D02*
G01*
X156077755Y-93432806D01*
X156257200Y-93941168D01*
X156256722Y-93950110D01*
X156254071Y-93953689D01*
X155882904Y-94293758D01*
X155874489Y-94296820D01*
X155867096Y-94293758D01*
X155496452Y-93954169D01*
X155492667Y-93946053D01*
X155493680Y-93940756D01*
X155721899Y-93431912D01*
X155728412Y-93425766D01*
X155732575Y-93425000D01*
X156066722Y-93425000D01*
X156074995Y-93428427D01*
G37*
%TD.AperFunction*%
%TD*%
%TA.AperFunction,Conductor*%
%TO.N,/VG*%
G36*
X126006702Y-84305529D02*
G01*
X126995745Y-85121490D01*
X126999946Y-85129398D01*
X126999999Y-85130515D01*
X126999999Y-85469484D01*
X126996572Y-85477757D01*
X126995745Y-85478509D01*
X126006702Y-86294470D01*
X125998139Y-86297092D01*
X125992769Y-86295182D01*
X124513615Y-85309737D01*
X124508630Y-85302298D01*
X124510365Y-85293513D01*
X124513615Y-85290263D01*
X124753397Y-85130515D01*
X125992769Y-84304816D01*
X126001554Y-84303082D01*
X126006702Y-84305529D01*
G37*
%TD.AperFunction*%
%TD*%
%TA.AperFunction,Conductor*%
%TO.N,Net-(J4-In)*%
G36*
X155882902Y-74506240D02*
G01*
X156253547Y-74845830D01*
X156254071Y-74846310D01*
X156257856Y-74854426D01*
X156257200Y-74858831D01*
X156077755Y-75367194D01*
X156071770Y-75373855D01*
X156066722Y-75375000D01*
X155732575Y-75375000D01*
X155724302Y-75371573D01*
X155721900Y-75368088D01*
X155493681Y-74859245D01*
X155493422Y-74850294D01*
X155496450Y-74845832D01*
X155867097Y-74506240D01*
X155875511Y-74503179D01*
X155882902Y-74506240D01*
G37*
%TD.AperFunction*%
%TD*%
%TA.AperFunction,Conductor*%
%TO.N,Net-(Z3-Pad2)*%
G36*
X149328575Y-104906755D02*
G01*
X149669155Y-105292253D01*
X149672065Y-105300722D01*
X149669155Y-105307747D01*
X149328575Y-105693244D01*
X149320529Y-105697175D01*
X149314552Y-105695951D01*
X148881445Y-105478239D01*
X148875593Y-105471461D01*
X148875000Y-105467785D01*
X148875000Y-105132214D01*
X148878427Y-105123941D01*
X148881443Y-105121760D01*
X149314554Y-104904047D01*
X149323483Y-104903395D01*
X149328575Y-104906755D01*
G37*
%TD.AperFunction*%
%TD*%
%TA.AperFunction,Conductor*%
%TO.N,Net-(Z1-Pad2)*%
G36*
X141728575Y-104906755D02*
G01*
X142069155Y-105292253D01*
X142072065Y-105300722D01*
X142069155Y-105307747D01*
X141728575Y-105693244D01*
X141720529Y-105697175D01*
X141714552Y-105695951D01*
X141281445Y-105478239D01*
X141275593Y-105471461D01*
X141275000Y-105467785D01*
X141275000Y-105132214D01*
X141278427Y-105123941D01*
X141281443Y-105121760D01*
X141714554Y-104904047D01*
X141723483Y-104903395D01*
X141728575Y-104906755D01*
G37*
%TD.AperFunction*%
%TD*%
%TA.AperFunction,Conductor*%
%TO.N,Net-(Z10-Pad2)*%
G36*
X156074995Y-81228427D02*
G01*
X156077755Y-81232806D01*
X156257200Y-81741168D01*
X156256722Y-81750110D01*
X156254071Y-81753689D01*
X155882904Y-82093758D01*
X155874489Y-82096820D01*
X155867096Y-82093758D01*
X155496452Y-81754169D01*
X155492667Y-81746053D01*
X155493680Y-81740756D01*
X155721899Y-81231912D01*
X155728412Y-81225766D01*
X155732575Y-81225000D01*
X156066722Y-81225000D01*
X156074995Y-81228427D01*
G37*
%TD.AperFunction*%
%TD*%
%TA.AperFunction,Conductor*%
%TO.N,+3V3*%
G36*
X166107230Y-99304817D02*
G01*
X167586384Y-100290262D01*
X167591369Y-100297701D01*
X167589634Y-100306486D01*
X167586384Y-100309736D01*
X166107230Y-101295182D01*
X166098445Y-101296917D01*
X166093297Y-101294470D01*
X165104254Y-100478509D01*
X165100053Y-100470601D01*
X165100000Y-100469484D01*
X165100000Y-100130515D01*
X165103427Y-100122242D01*
X165104248Y-100121494D01*
X166093298Y-99305528D01*
X166101860Y-99302907D01*
X166107230Y-99304817D01*
G37*
%TD.AperFunction*%
%TD*%
%TA.AperFunction,Conductor*%
%TO.N,/VG_GATED*%
G36*
X153928575Y-96906755D02*
G01*
X154269155Y-97292253D01*
X154272065Y-97300722D01*
X154269155Y-97307747D01*
X153928575Y-97693244D01*
X153920529Y-97697175D01*
X153914552Y-97695951D01*
X153481445Y-97478239D01*
X153475593Y-97471461D01*
X153475000Y-97467785D01*
X153475000Y-97132214D01*
X153478427Y-97123941D01*
X153481443Y-97121760D01*
X153914554Y-96904047D01*
X153923483Y-96903395D01*
X153928575Y-96906755D01*
G37*
%TD.AperFunction*%
%TD*%
%TA.AperFunction,Conductor*%
%TO.N,/OUT*%
G36*
X155919862Y-100304965D02*
G01*
X156271589Y-100589926D01*
X156326338Y-100634282D01*
X156330609Y-100642153D01*
X156329638Y-100648185D01*
X156078108Y-101205612D01*
X156071581Y-101211744D01*
X156067443Y-101212500D01*
X155732866Y-101212500D01*
X155724593Y-101209073D01*
X155722031Y-101205216D01*
X155494928Y-100648002D01*
X155494979Y-100639047D01*
X155498396Y-100634496D01*
X155905136Y-100304965D01*
X155913720Y-100302421D01*
X155919862Y-100304965D01*
G37*
%TD.AperFunction*%
%TD*%
%TA.AperFunction,Conductor*%
%TO.N,/VG_GATED*%
G36*
X151282199Y-94304606D02*
G01*
X151701044Y-94630786D01*
X151701223Y-94630925D01*
X151705645Y-94638712D01*
X151705067Y-94644050D01*
X151502755Y-95217194D01*
X151496770Y-95223855D01*
X151491722Y-95225000D01*
X151157086Y-95225000D01*
X151148813Y-95221573D01*
X151146717Y-95218719D01*
X150847097Y-94645425D01*
X150846302Y-94636506D01*
X150850260Y-94630789D01*
X151267808Y-94304617D01*
X151276438Y-94302225D01*
X151282199Y-94304606D01*
G37*
%TD.AperFunction*%
%TD*%
%TA.AperFunction,Conductor*%
%TO.N,+1V8*%
G36*
X150969485Y-99899304D02*
G01*
X151295401Y-100317811D01*
X151297781Y-100326444D01*
X151295401Y-100332189D01*
X150969485Y-100750695D01*
X150961698Y-100755117D01*
X150955561Y-100754223D01*
X150382007Y-100503068D01*
X150375803Y-100496611D01*
X150375000Y-100492351D01*
X150375000Y-100157648D01*
X150378427Y-100149375D01*
X150382004Y-100146932D01*
X150955562Y-99895775D01*
X150964514Y-99895596D01*
X150969485Y-99899304D01*
G37*
%TD.AperFunction*%
%TD*%
%TA.AperFunction,Conductor*%
%TO.N,/VG_GATED*%
G36*
X151685445Y-96904047D02*
G01*
X152118555Y-97121760D01*
X152124407Y-97128538D01*
X152125000Y-97132214D01*
X152125000Y-97467785D01*
X152121573Y-97476058D01*
X152118555Y-97478239D01*
X151685447Y-97695951D01*
X151676516Y-97696604D01*
X151671424Y-97693244D01*
X151330844Y-97307747D01*
X151327934Y-97299278D01*
X151330844Y-97292253D01*
X151671425Y-96906754D01*
X151679470Y-96902824D01*
X151685445Y-96904047D01*
G37*
%TD.AperFunction*%
%TD*%
%TA.AperFunction,Conductor*%
%TO.N,/OUT*%
G36*
X155907747Y-91330844D02*
G01*
X156293244Y-91671424D01*
X156297175Y-91679470D01*
X156295951Y-91685447D01*
X156078240Y-92118555D01*
X156071462Y-92124407D01*
X156067786Y-92125000D01*
X155732214Y-92125000D01*
X155723941Y-92121573D01*
X155721760Y-92118555D01*
X155504047Y-91685445D01*
X155503395Y-91676516D01*
X155506753Y-91671426D01*
X155892253Y-91330843D01*
X155900722Y-91327934D01*
X155907747Y-91330844D01*
G37*
%TD.AperFunction*%
%TD*%
%TA.AperFunction,Conductor*%
%TO.N,Net-(Z1-Pad2)*%
G36*
X136485445Y-104904047D02*
G01*
X136918555Y-105121760D01*
X136924407Y-105128538D01*
X136925000Y-105132214D01*
X136925000Y-105467785D01*
X136921573Y-105476058D01*
X136918555Y-105478239D01*
X136485447Y-105695951D01*
X136476516Y-105696604D01*
X136471424Y-105693244D01*
X136130844Y-105307747D01*
X136127934Y-105299278D01*
X136130844Y-105292253D01*
X136471425Y-104906754D01*
X136479470Y-104902824D01*
X136485445Y-104904047D01*
G37*
%TD.AperFunction*%
%TD*%
%TA.AperFunction,Conductor*%
%TO.N,GND*%
G36*
X130356421Y-66802868D02*
G01*
X130294601Y-66761561D01*
X130221680Y-66747056D01*
X130172432Y-66747056D01*
X130099511Y-66761561D01*
X130016816Y-66816816D01*
X129961561Y-66899511D01*
X129942158Y-66997056D01*
X129961561Y-67094601D01*
X130002867Y-67156420D01*
X129444180Y-66597733D01*
X129634870Y-66434870D01*
X129797733Y-66244180D01*
X130356421Y-66802868D01*
G37*
%TD.AperFunction*%
%TA.AperFunction,Conductor*%
G36*
X127365130Y-66434870D02*
G01*
X127555819Y-66597733D01*
X126997135Y-67156416D01*
X127038439Y-67094601D01*
X127057842Y-66997056D01*
X127038439Y-66899511D01*
X126983184Y-66816816D01*
X126900489Y-66761561D01*
X126827568Y-66747056D01*
X126778320Y-66747056D01*
X126705399Y-66761561D01*
X126643577Y-66802868D01*
X127202266Y-66244180D01*
X127365130Y-66434870D01*
G37*
%TD.AperFunction*%
%TA.AperFunction,Conductor*%
G36*
X127555819Y-64002266D02*
G01*
X127365130Y-64165130D01*
X127202266Y-64355818D01*
X126643582Y-63797134D01*
X126705399Y-63838439D01*
X126778320Y-63852944D01*
X126827568Y-63852944D01*
X126900489Y-63838439D01*
X126983184Y-63783184D01*
X127038439Y-63700489D01*
X127057842Y-63602944D01*
X127038439Y-63505399D01*
X126997133Y-63443581D01*
X127555819Y-64002266D01*
G37*
%TD.AperFunction*%
%TA.AperFunction,Conductor*%
G36*
X129961561Y-63505399D02*
G01*
X129942158Y-63602944D01*
X129961561Y-63700489D01*
X130016816Y-63783184D01*
X130099511Y-63838439D01*
X130172432Y-63852944D01*
X130221680Y-63852944D01*
X130294601Y-63838439D01*
X130356414Y-63797136D01*
X129797732Y-64355818D01*
X129634870Y-64165130D01*
X129444180Y-64002266D01*
X130002867Y-63443578D01*
X129961561Y-63505399D01*
G37*
%TD.AperFunction*%
%TA.AperFunction,Conductor*%
G36*
X153031167Y-60020185D02*
G01*
X153076922Y-60072989D01*
X153086866Y-60142147D01*
X153057841Y-60205703D01*
X152999063Y-60243477D01*
X152982609Y-60247115D01*
X152969500Y-60249090D01*
X152969494Y-60249092D01*
X152718858Y-60326404D01*
X152718854Y-60326405D01*
X152482550Y-60440204D01*
X152482546Y-60440206D01*
X152310832Y-60557278D01*
X152961391Y-61207837D01*
X152842569Y-61279331D01*
X152708342Y-61406477D01*
X152605138Y-61558691D01*
X151957874Y-60911428D01*
X151910027Y-60971426D01*
X151778883Y-61198573D01*
X151683058Y-61442729D01*
X151624693Y-61698449D01*
X151624692Y-61698454D01*
X151605093Y-61959995D01*
X151605093Y-61960004D01*
X151624692Y-62221545D01*
X151624693Y-62221550D01*
X151683058Y-62477270D01*
X151778883Y-62721426D01*
X151778882Y-62721426D01*
X151910030Y-62948577D01*
X151957873Y-63008571D01*
X152608766Y-62357678D01*
X152652316Y-62439822D01*
X152772009Y-62580735D01*
X152919195Y-62692623D01*
X152961401Y-62712149D01*
X152310831Y-63362720D01*
X152482546Y-63479793D01*
X152482550Y-63479795D01*
X152718854Y-63593594D01*
X152718858Y-63593595D01*
X152969494Y-63670907D01*
X152969500Y-63670909D01*
X153228848Y-63709999D01*
X153228857Y-63710000D01*
X153491143Y-63710000D01*
X153491151Y-63709999D01*
X153755092Y-63670217D01*
X153755332Y-63671812D01*
X153818144Y-63675659D01*
X153874502Y-63716957D01*
X153899587Y-63782168D01*
X153900000Y-63792278D01*
X153900000Y-65207721D01*
X153880315Y-65274760D01*
X153827511Y-65320515D01*
X153758353Y-65330459D01*
X153753053Y-65329475D01*
X153491151Y-65290000D01*
X153228848Y-65290000D01*
X152969500Y-65329090D01*
X152969494Y-65329092D01*
X152718858Y-65406404D01*
X152718854Y-65406405D01*
X152482550Y-65520204D01*
X152482546Y-65520206D01*
X152310832Y-65637278D01*
X152961391Y-66287837D01*
X152842569Y-66359331D01*
X152708342Y-66486477D01*
X152605138Y-66638691D01*
X151957874Y-65991428D01*
X151910027Y-66051426D01*
X151778883Y-66278573D01*
X151683058Y-66522729D01*
X151624693Y-66778449D01*
X151624692Y-66778454D01*
X151605093Y-67039995D01*
X151605093Y-67040004D01*
X151624692Y-67301545D01*
X151624693Y-67301550D01*
X151683058Y-67557270D01*
X151778883Y-67801426D01*
X151778882Y-67801426D01*
X151910030Y-68028577D01*
X151957873Y-68088571D01*
X152608766Y-67437678D01*
X152652316Y-67519822D01*
X152772009Y-67660735D01*
X152919195Y-67772623D01*
X152961401Y-67792149D01*
X152310831Y-68442720D01*
X152482546Y-68559793D01*
X152482550Y-68559795D01*
X152718854Y-68673594D01*
X152718858Y-68673595D01*
X152969494Y-68750907D01*
X152969500Y-68750909D01*
X153228848Y-68789999D01*
X153228857Y-68790000D01*
X153491143Y-68790000D01*
X153491151Y-68789999D01*
X153755092Y-68750217D01*
X153755332Y-68751812D01*
X153818144Y-68755659D01*
X153874502Y-68796957D01*
X153899587Y-68862168D01*
X153900000Y-68872278D01*
X153900000Y-96531650D01*
X153880315Y-96598689D01*
X153849633Y-96631421D01*
X153776151Y-96685652D01*
X153758210Y-96696671D01*
X153430725Y-96861290D01*
X153375033Y-96874500D01*
X152224962Y-96874500D01*
X152169271Y-96861290D01*
X151936751Y-96744408D01*
X151885695Y-96696711D01*
X151877341Y-96679744D01*
X151759398Y-96385434D01*
X151750500Y-96339308D01*
X151750500Y-95304177D01*
X151757571Y-95262903D01*
X151823046Y-95077413D01*
X151945998Y-94729095D01*
X151953353Y-94696747D01*
X151955722Y-94688816D01*
X151969411Y-94652116D01*
X151969412Y-94652114D01*
X151972108Y-94627041D01*
X151975499Y-94595501D01*
X151975499Y-94595494D01*
X151975500Y-94595485D01*
X151975499Y-94004516D01*
X151969412Y-93947886D01*
X151921628Y-93819774D01*
X151839687Y-93710313D01*
X151766155Y-93655268D01*
X151730228Y-93628373D01*
X151730226Y-93628372D01*
X151602114Y-93580588D01*
X151602112Y-93580587D01*
X151602110Y-93580587D01*
X151545493Y-93574500D01*
X151004518Y-93574500D01*
X151004509Y-93574501D01*
X150947885Y-93580587D01*
X150819771Y-93628373D01*
X150738195Y-93689439D01*
X150672730Y-93713855D01*
X150604458Y-93699002D01*
X150558347Y-93655268D01*
X150522571Y-93597266D01*
X150402732Y-93477427D01*
X150402728Y-93477424D01*
X150258492Y-93388457D01*
X150258481Y-93388452D01*
X150097606Y-93335144D01*
X149998322Y-93325000D01*
X149975000Y-93325000D01*
X149975000Y-95274999D01*
X149998308Y-95274999D01*
X149998322Y-95274998D01*
X150097607Y-95264855D01*
X150258481Y-95211547D01*
X150258492Y-95211542D01*
X150402728Y-95122575D01*
X150402732Y-95122572D01*
X150522572Y-95002732D01*
X150528818Y-94992606D01*
X150580765Y-94945879D01*
X150649727Y-94934655D01*
X150713810Y-94962496D01*
X150744255Y-95000264D01*
X150808179Y-95122575D01*
X150869834Y-95240546D01*
X150885396Y-95270321D01*
X150899500Y-95327756D01*
X150899500Y-96339310D01*
X150890601Y-96385437D01*
X150706070Y-96845903D01*
X150706067Y-96845913D01*
X150691355Y-96898063D01*
X150690722Y-96900867D01*
X150688768Y-96907674D01*
X150677353Y-96940301D01*
X150674500Y-96970731D01*
X150674500Y-97629269D01*
X150677353Y-97659699D01*
X150677353Y-97659701D01*
X150722206Y-97787880D01*
X150722207Y-97787882D01*
X150802850Y-97897150D01*
X150912118Y-97977793D01*
X150954845Y-97992744D01*
X151040299Y-98022646D01*
X151070730Y-98025500D01*
X151070734Y-98025500D01*
X151579270Y-98025500D01*
X151609699Y-98022646D01*
X151609701Y-98022646D01*
X151673790Y-98000219D01*
X151737882Y-97977793D01*
X151823863Y-97914335D01*
X151841801Y-97903318D01*
X152169268Y-97738709D01*
X152224959Y-97725500D01*
X153175500Y-97725500D01*
X153242539Y-97745185D01*
X153288294Y-97797989D01*
X153299500Y-97849500D01*
X153299500Y-101613483D01*
X153279815Y-101680522D01*
X153227011Y-101726277D01*
X153157853Y-101736221D01*
X153094297Y-101707196D01*
X153065014Y-101669776D01*
X153036332Y-101613483D01*
X153017413Y-101576351D01*
X152939207Y-101468708D01*
X152938975Y-101468293D01*
X152325159Y-100854477D01*
X152297065Y-100811206D01*
X152277773Y-100760913D01*
X152033724Y-100124684D01*
X152025499Y-100080274D01*
X152025499Y-100054518D01*
X152025498Y-100054509D01*
X152019412Y-99997885D01*
X151978831Y-99889087D01*
X151971628Y-99869774D01*
X151889687Y-99760313D01*
X151823911Y-99711074D01*
X151780228Y-99678373D01*
X151780226Y-99678372D01*
X151652114Y-99630588D01*
X151652112Y-99630587D01*
X151652110Y-99630587D01*
X151595493Y-99624500D01*
X151004518Y-99624500D01*
X151004509Y-99624501D01*
X150947886Y-99630587D01*
X150947881Y-99630589D01*
X150884722Y-99654146D01*
X150876360Y-99656611D01*
X150853084Y-99661728D01*
X150853071Y-99661732D01*
X150333872Y-99889087D01*
X150284133Y-99899500D01*
X134930386Y-99899500D01*
X134930374Y-99899499D01*
X134862253Y-99899499D01*
X134856174Y-99899200D01*
X134759285Y-99889660D01*
X134735440Y-99884917D01*
X134651036Y-99859313D01*
X134628585Y-99850014D01*
X134550795Y-99808437D01*
X134530590Y-99794936D01*
X134455402Y-99733232D01*
X134450900Y-99729152D01*
X126635726Y-91913978D01*
X126603127Y-91856441D01*
X126362784Y-90897421D01*
X126255144Y-90467918D01*
X126251772Y-90428507D01*
X126255408Y-90380001D01*
X126255408Y-90379996D01*
X126235803Y-90118379D01*
X126235802Y-90118374D01*
X126235802Y-90118370D01*
X126177420Y-89862584D01*
X126081568Y-89618357D01*
X125950386Y-89391143D01*
X125786805Y-89186019D01*
X125786804Y-89186018D01*
X125786801Y-89186014D01*
X125594479Y-89007567D01*
X125594478Y-89007567D01*
X125377704Y-88859772D01*
X125377700Y-88859770D01*
X125377697Y-88859768D01*
X125377696Y-88859767D01*
X125141325Y-88745938D01*
X125141327Y-88745938D01*
X124890623Y-88668606D01*
X124890619Y-88668605D01*
X124890615Y-88668604D01*
X124765823Y-88649794D01*
X124631187Y-88629500D01*
X124631182Y-88629500D01*
X124368818Y-88629500D01*
X124368812Y-88629500D01*
X124207247Y-88653853D01*
X124109385Y-88668604D01*
X124109381Y-88668605D01*
X124109382Y-88668605D01*
X124109376Y-88668606D01*
X123858673Y-88745938D01*
X123622303Y-88859767D01*
X123622302Y-88859768D01*
X123405520Y-89007567D01*
X123213198Y-89186014D01*
X123049614Y-89391143D01*
X122918432Y-89618356D01*
X122822582Y-89862578D01*
X122822576Y-89862597D01*
X122764197Y-90118374D01*
X122764196Y-90118379D01*
X122744592Y-90379995D01*
X122744592Y-90380004D01*
X122764196Y-90641620D01*
X122764197Y-90641625D01*
X122822576Y-90897402D01*
X122822578Y-90897411D01*
X122822580Y-90897416D01*
X122918432Y-91141643D01*
X123049614Y-91368857D01*
X123181736Y-91534533D01*
X123213198Y-91573985D01*
X123394753Y-91742441D01*
X123405521Y-91752433D01*
X123622296Y-91900228D01*
X123622301Y-91900230D01*
X123622302Y-91900231D01*
X123622303Y-91900232D01*
X123747843Y-91960688D01*
X123858673Y-92014061D01*
X123858674Y-92014061D01*
X123858677Y-92014063D01*
X124109385Y-92091396D01*
X124368818Y-92130500D01*
X124554083Y-92130500D01*
X124584227Y-92134220D01*
X125976440Y-92483126D01*
X126033977Y-92515725D01*
X133805633Y-100287381D01*
X133805653Y-100287403D01*
X133814906Y-100296655D01*
X133814924Y-100296688D01*
X133917288Y-100399049D01*
X133917294Y-100399055D01*
X133917297Y-100399057D01*
X134065548Y-100512812D01*
X134227379Y-100606243D01*
X134400021Y-100677751D01*
X134400026Y-100677753D01*
X134551890Y-100718442D01*
X134580520Y-100726113D01*
X134580526Y-100726113D01*
X134580532Y-100726115D01*
X134660612Y-100736656D01*
X134765787Y-100750502D01*
X134859220Y-100750500D01*
X134920398Y-100750500D01*
X150284136Y-100750500D01*
X150333874Y-100760912D01*
X150571904Y-100865144D01*
X150625418Y-100910066D01*
X150646150Y-100976789D01*
X150627517Y-101044129D01*
X150602366Y-101072311D01*
X150602375Y-101072320D01*
X150602223Y-101072471D01*
X150599080Y-101075994D01*
X150597268Y-101077426D01*
X150477427Y-101197267D01*
X150477424Y-101197271D01*
X150388457Y-101341507D01*
X150388452Y-101341518D01*
X150335144Y-101502393D01*
X150325000Y-101601677D01*
X150325000Y-101625000D01*
X151426000Y-101625000D01*
X151493039Y-101644685D01*
X151538794Y-101697489D01*
X151550000Y-101749000D01*
X151550000Y-102824999D01*
X151598308Y-102824999D01*
X151598322Y-102824998D01*
X151697607Y-102814855D01*
X151858481Y-102761547D01*
X151858492Y-102761542D01*
X152002728Y-102672575D01*
X152002732Y-102672572D01*
X152122572Y-102552732D01*
X152122575Y-102552728D01*
X152209962Y-102411054D01*
X152261910Y-102364329D01*
X152330872Y-102353108D01*
X152394954Y-102380951D01*
X152433810Y-102439020D01*
X152439500Y-102476151D01*
X152439500Y-103006647D01*
X152439504Y-103006756D01*
X152439504Y-103042324D01*
X152444746Y-103075428D01*
X152457602Y-103156604D01*
X152448645Y-103225898D01*
X152403648Y-103279349D01*
X152336896Y-103299987D01*
X152335128Y-103300000D01*
X147744907Y-103300000D01*
X147677868Y-103280315D01*
X147632113Y-103227511D01*
X147626522Y-103212890D01*
X147618019Y-103185604D01*
X147530072Y-103040122D01*
X147409877Y-102919927D01*
X147264395Y-102831980D01*
X147264396Y-102831980D01*
X147102105Y-102781409D01*
X147102106Y-102781409D01*
X147031572Y-102775000D01*
X146950000Y-102775000D01*
X146950000Y-103300000D01*
X146450000Y-103300000D01*
X146450000Y-102775000D01*
X146449999Y-102774999D01*
X146368417Y-102775000D01*
X146297897Y-102781408D01*
X146297892Y-102781409D01*
X146135603Y-102831981D01*
X145990122Y-102919927D01*
X145869927Y-103040122D01*
X145781980Y-103185604D01*
X145773478Y-103212890D01*
X145734741Y-103271038D01*
X145670716Y-103299012D01*
X145655093Y-103300000D01*
X140144907Y-103300000D01*
X140077868Y-103280315D01*
X140032113Y-103227511D01*
X140026522Y-103212890D01*
X140018019Y-103185604D01*
X139930072Y-103040122D01*
X139809877Y-102919927D01*
X139664395Y-102831980D01*
X139664396Y-102831980D01*
X139502105Y-102781409D01*
X139502106Y-102781409D01*
X139431572Y-102775000D01*
X139350000Y-102775000D01*
X139350000Y-103300000D01*
X138850000Y-103300000D01*
X138850000Y-102775000D01*
X138849999Y-102774999D01*
X138768417Y-102775000D01*
X138697897Y-102781408D01*
X138697892Y-102781409D01*
X138535603Y-102831981D01*
X138390122Y-102919927D01*
X138269927Y-103040122D01*
X138181980Y-103185604D01*
X138173478Y-103212890D01*
X138134741Y-103271038D01*
X138070716Y-103299012D01*
X138055093Y-103300000D01*
X128867244Y-103300000D01*
X128800205Y-103280315D01*
X128754450Y-103227511D01*
X128744506Y-103158353D01*
X128746353Y-103148408D01*
X128775306Y-103021550D01*
X128775307Y-103021545D01*
X128794907Y-102760004D01*
X128794907Y-102759995D01*
X128775307Y-102498454D01*
X128775306Y-102498449D01*
X128716941Y-102242729D01*
X128670735Y-102125000D01*
X150325001Y-102125000D01*
X150325001Y-102148322D01*
X150335144Y-102247607D01*
X150388452Y-102408481D01*
X150388457Y-102408492D01*
X150477424Y-102552728D01*
X150477427Y-102552732D01*
X150597267Y-102672572D01*
X150597271Y-102672575D01*
X150741507Y-102761542D01*
X150741518Y-102761547D01*
X150902393Y-102814855D01*
X151001683Y-102824999D01*
X151049999Y-102824998D01*
X151050000Y-102824998D01*
X151050000Y-102125000D01*
X150325001Y-102125000D01*
X128670735Y-102125000D01*
X128621116Y-101998573D01*
X128621117Y-101998573D01*
X128489971Y-101771426D01*
X128442125Y-101711427D01*
X127791232Y-102362319D01*
X127747684Y-102280178D01*
X127627991Y-102139265D01*
X127480805Y-102027377D01*
X127438596Y-102007849D01*
X128089167Y-101357278D01*
X127917447Y-101240202D01*
X127917445Y-101240201D01*
X127681142Y-101126404D01*
X127681144Y-101126404D01*
X127430505Y-101049092D01*
X127430499Y-101049090D01*
X127171151Y-101010000D01*
X126908848Y-101010000D01*
X126649500Y-101049090D01*
X126649494Y-101049092D01*
X126398858Y-101126404D01*
X126398854Y-101126405D01*
X126162550Y-101240204D01*
X126162546Y-101240206D01*
X125990832Y-101357278D01*
X126641391Y-102007837D01*
X126522569Y-102079331D01*
X126388342Y-102206477D01*
X126285138Y-102358692D01*
X125637874Y-101711428D01*
X125590027Y-101771426D01*
X125458883Y-101998573D01*
X125363058Y-102242729D01*
X125304693Y-102498449D01*
X125304692Y-102498454D01*
X125285093Y-102759995D01*
X125285093Y-102760004D01*
X125304692Y-103021545D01*
X125304693Y-103021550D01*
X125333647Y-103148408D01*
X125329373Y-103218147D01*
X125288075Y-103274504D01*
X125222863Y-103299587D01*
X125212756Y-103300000D01*
X123787244Y-103300000D01*
X123720205Y-103280315D01*
X123674450Y-103227511D01*
X123664506Y-103158353D01*
X123666353Y-103148408D01*
X123695306Y-103021550D01*
X123695307Y-103021545D01*
X123714907Y-102760004D01*
X123714907Y-102759995D01*
X123695307Y-102498454D01*
X123695306Y-102498449D01*
X123636941Y-102242729D01*
X123541116Y-101998573D01*
X123541117Y-101998573D01*
X123409971Y-101771426D01*
X123362125Y-101711427D01*
X122711232Y-102362319D01*
X122667684Y-102280178D01*
X122547991Y-102139265D01*
X122400805Y-102027377D01*
X122358596Y-102007849D01*
X123009167Y-101357278D01*
X122837447Y-101240202D01*
X122837445Y-101240201D01*
X122601142Y-101126404D01*
X122601144Y-101126404D01*
X122350505Y-101049092D01*
X122350499Y-101049090D01*
X122091151Y-101010000D01*
X121828848Y-101010000D01*
X121569500Y-101049090D01*
X121569494Y-101049092D01*
X121318858Y-101126404D01*
X121318854Y-101126405D01*
X121082550Y-101240204D01*
X121082546Y-101240206D01*
X120910832Y-101357278D01*
X121561391Y-102007837D01*
X121442569Y-102079331D01*
X121308342Y-102206477D01*
X121205138Y-102358692D01*
X120557874Y-101711428D01*
X120510027Y-101771426D01*
X120378883Y-101998573D01*
X120283058Y-102242729D01*
X120245391Y-102407765D01*
X120211282Y-102468744D01*
X120149621Y-102501602D01*
X120079984Y-102495907D01*
X120024480Y-102453467D01*
X120000732Y-102387757D01*
X120000500Y-102380173D01*
X120000500Y-95460001D01*
X122494891Y-95460001D01*
X122515300Y-95745362D01*
X122576109Y-96024895D01*
X122676091Y-96292958D01*
X122813191Y-96544038D01*
X122813196Y-96544046D01*
X122919882Y-96686561D01*
X122919883Y-96686562D01*
X123815195Y-95791250D01*
X123837340Y-95842587D01*
X123943433Y-95985094D01*
X124079530Y-96099294D01*
X124169216Y-96144335D01*
X123273436Y-97040115D01*
X123415960Y-97146807D01*
X123415961Y-97146808D01*
X123667042Y-97283908D01*
X123667041Y-97283908D01*
X123935104Y-97383890D01*
X124214637Y-97444699D01*
X124499999Y-97465109D01*
X124500001Y-97465109D01*
X124785362Y-97444699D01*
X125064895Y-97383890D01*
X125332958Y-97283908D01*
X125584047Y-97146803D01*
X125726561Y-97040116D01*
X125726562Y-97040115D01*
X124833748Y-96147300D01*
X124843409Y-96143784D01*
X124991844Y-96046157D01*
X125113764Y-95916930D01*
X125185768Y-95792215D01*
X126080115Y-96686562D01*
X126080116Y-96686561D01*
X126186803Y-96544047D01*
X126323908Y-96292958D01*
X126423890Y-96024895D01*
X126484699Y-95745362D01*
X126505108Y-95460001D01*
X126505108Y-95459998D01*
X126484699Y-95174637D01*
X126423890Y-94895104D01*
X126323908Y-94627041D01*
X126186808Y-94375961D01*
X126186807Y-94375960D01*
X126080115Y-94233436D01*
X125184803Y-95128747D01*
X125162660Y-95077413D01*
X125056567Y-94934906D01*
X124920470Y-94820706D01*
X124830782Y-94775663D01*
X125726562Y-93879883D01*
X125726561Y-93879882D01*
X125584046Y-93773196D01*
X125584038Y-93773191D01*
X125332957Y-93636091D01*
X125332958Y-93636091D01*
X125064895Y-93536109D01*
X124785362Y-93475300D01*
X124500001Y-93454891D01*
X124499999Y-93454891D01*
X124214637Y-93475300D01*
X123935104Y-93536109D01*
X123667041Y-93636091D01*
X123415961Y-93773191D01*
X123415953Y-93773196D01*
X123273437Y-93879882D01*
X123273436Y-93879883D01*
X124166252Y-94772699D01*
X124156591Y-94776216D01*
X124008156Y-94873843D01*
X123886236Y-95003070D01*
X123814231Y-95127784D01*
X122919883Y-94233436D01*
X122919882Y-94233437D01*
X122813196Y-94375953D01*
X122813191Y-94375961D01*
X122676091Y-94627041D01*
X122576109Y-94895104D01*
X122515300Y-95174637D01*
X122494891Y-95459998D01*
X122494891Y-95460001D01*
X120000500Y-95460001D01*
X120000500Y-86824676D01*
X122749499Y-86824676D01*
X122749500Y-86824678D01*
X122764032Y-86897735D01*
X122764033Y-86897739D01*
X122764034Y-86897740D01*
X122819399Y-86980601D01*
X122902259Y-87035965D01*
X122902260Y-87035966D01*
X122902264Y-87035967D01*
X122975321Y-87050499D01*
X122975324Y-87050500D01*
X122975326Y-87050500D01*
X126024676Y-87050500D01*
X126024677Y-87050499D01*
X126097740Y-87035966D01*
X126180601Y-86980601D01*
X126235966Y-86897740D01*
X126250500Y-86824674D01*
X126250500Y-86483015D01*
X126270185Y-86415977D01*
X126295589Y-86387366D01*
X127063487Y-85753850D01*
X127127726Y-85726371D01*
X127142398Y-85725500D01*
X137199611Y-85725500D01*
X137199614Y-85725501D01*
X137257746Y-85725500D01*
X137263825Y-85725799D01*
X137293285Y-85728699D01*
X137360721Y-85735340D01*
X137384559Y-85740082D01*
X137468963Y-85765686D01*
X137491409Y-85774982D01*
X137569206Y-85816564D01*
X137589409Y-85830063D01*
X137664596Y-85891766D01*
X137669097Y-85895845D01*
X143347233Y-91573981D01*
X148668979Y-96895727D01*
X148690270Y-96924238D01*
X148753189Y-97040116D01*
X149009472Y-97512108D01*
X149024500Y-97571278D01*
X149024500Y-97629269D01*
X149027353Y-97659699D01*
X149027353Y-97659701D01*
X149072206Y-97787880D01*
X149072207Y-97787882D01*
X149152850Y-97897150D01*
X149262118Y-97977793D01*
X149304845Y-97992743D01*
X149390299Y-98022646D01*
X149420730Y-98025500D01*
X149420734Y-98025500D01*
X149929270Y-98025500D01*
X149959699Y-98022646D01*
X149959701Y-98022646D01*
X150023790Y-98000219D01*
X150087882Y-97977793D01*
X150197150Y-97897150D01*
X150277793Y-97787882D01*
X150300219Y-97723790D01*
X150322646Y-97659701D01*
X150322646Y-97659699D01*
X150325500Y-97629269D01*
X150325500Y-96970730D01*
X150322646Y-96940300D01*
X150322646Y-96940298D01*
X150277793Y-96812119D01*
X150277792Y-96812117D01*
X150197150Y-96702850D01*
X150087882Y-96622207D01*
X150087880Y-96622206D01*
X149959700Y-96577353D01*
X149929270Y-96574500D01*
X149929266Y-96574500D01*
X149863561Y-96574500D01*
X149809196Y-96561947D01*
X149747087Y-96531650D01*
X149299719Y-96313421D01*
X149266403Y-96289655D01*
X147526748Y-94550000D01*
X148775001Y-94550000D01*
X148775001Y-94598322D01*
X148785144Y-94697607D01*
X148838452Y-94858481D01*
X148838457Y-94858492D01*
X148927424Y-95002728D01*
X148927427Y-95002732D01*
X149047267Y-95122572D01*
X149047271Y-95122575D01*
X149191507Y-95211542D01*
X149191518Y-95211547D01*
X149352393Y-95264855D01*
X149451683Y-95274999D01*
X149474999Y-95274998D01*
X149475000Y-94550000D01*
X148775001Y-94550000D01*
X147526748Y-94550000D01*
X147026748Y-94050000D01*
X148775000Y-94050000D01*
X149475000Y-94050000D01*
X149475000Y-93324999D01*
X149451693Y-93325000D01*
X149451674Y-93325001D01*
X149352392Y-93335144D01*
X149191518Y-93388452D01*
X149191507Y-93388457D01*
X149047271Y-93477424D01*
X149047267Y-93477427D01*
X148927427Y-93597267D01*
X148927424Y-93597271D01*
X148838457Y-93741507D01*
X148838452Y-93741518D01*
X148785144Y-93902393D01*
X148775000Y-94001677D01*
X148775000Y-94050000D01*
X147026748Y-94050000D01*
X138319097Y-85342349D01*
X138319085Y-85342335D01*
X138305090Y-85328340D01*
X138305073Y-85328309D01*
X138202711Y-85225950D01*
X138202705Y-85225944D01*
X138054457Y-85112192D01*
X138054452Y-85112188D01*
X137892621Y-85018757D01*
X137871694Y-85010089D01*
X137719973Y-84947246D01*
X137539486Y-84898888D01*
X137539467Y-84898884D01*
X137354223Y-84874499D01*
X137354218Y-84874498D01*
X137354213Y-84874498D01*
X137354205Y-84874498D01*
X137260780Y-84874500D01*
X127142399Y-84874500D01*
X127075360Y-84854815D01*
X127063487Y-84846150D01*
X126295588Y-84212631D01*
X126256403Y-84154784D01*
X126250500Y-84116981D01*
X126250500Y-83775323D01*
X126250499Y-83775321D01*
X126235967Y-83702264D01*
X126235966Y-83702260D01*
X126235965Y-83702260D01*
X126180601Y-83619399D01*
X126097740Y-83564034D01*
X126097739Y-83564033D01*
X126097735Y-83564032D01*
X126024677Y-83549500D01*
X126024674Y-83549500D01*
X122975326Y-83549500D01*
X122975323Y-83549500D01*
X122902264Y-83564032D01*
X122902260Y-83564033D01*
X122819399Y-83619399D01*
X122764033Y-83702260D01*
X122764032Y-83702264D01*
X122749500Y-83775321D01*
X122749499Y-83775323D01*
X122749499Y-86824676D01*
X120000500Y-86824676D01*
X120000500Y-65300000D01*
X124794922Y-65300000D01*
X124815219Y-65687287D01*
X124875886Y-66070323D01*
X124875887Y-66070330D01*
X124976262Y-66444936D01*
X125115244Y-66806994D01*
X125291310Y-67152543D01*
X125502531Y-67477793D01*
X125711095Y-67735350D01*
X125711096Y-67735350D01*
X126608756Y-66837689D01*
X126567449Y-66899511D01*
X126548046Y-66997056D01*
X126567449Y-67094601D01*
X126622704Y-67177296D01*
X126705399Y-67232551D01*
X126778320Y-67247056D01*
X126827568Y-67247056D01*
X126900489Y-67232551D01*
X126962304Y-67191247D01*
X126064648Y-68088903D01*
X126064649Y-68088904D01*
X126322206Y-68297468D01*
X126647456Y-68508689D01*
X126993005Y-68684755D01*
X127355063Y-68823737D01*
X127729669Y-68924112D01*
X127729676Y-68924113D01*
X128112712Y-68984780D01*
X128499999Y-69005078D01*
X128500001Y-69005078D01*
X128887287Y-68984780D01*
X129270323Y-68924113D01*
X129270330Y-68924112D01*
X129644936Y-68823737D01*
X130006994Y-68684755D01*
X130352543Y-68508689D01*
X130677783Y-68297476D01*
X130677785Y-68297475D01*
X130935349Y-68088902D01*
X130037691Y-67191244D01*
X130099511Y-67232551D01*
X130172432Y-67247056D01*
X130221680Y-67247056D01*
X130294601Y-67232551D01*
X130377296Y-67177296D01*
X130432551Y-67094601D01*
X130451954Y-66997056D01*
X130432551Y-66899511D01*
X130391243Y-66837690D01*
X131288902Y-67735349D01*
X131497475Y-67477785D01*
X131497476Y-67477783D01*
X131708689Y-67152543D01*
X131884755Y-66806994D01*
X132023737Y-66444936D01*
X132124112Y-66070330D01*
X132124113Y-66070323D01*
X132184780Y-65687287D01*
X132205078Y-65300000D01*
X132205078Y-65299999D01*
X132184780Y-64912712D01*
X132124113Y-64529676D01*
X132124112Y-64529669D01*
X132023737Y-64155063D01*
X131884755Y-63793005D01*
X131708689Y-63447456D01*
X131497468Y-63122206D01*
X131288904Y-62864649D01*
X131288903Y-62864648D01*
X130391248Y-63762302D01*
X130432551Y-63700489D01*
X130451954Y-63602944D01*
X130432551Y-63505399D01*
X130377296Y-63422704D01*
X130294601Y-63367449D01*
X130221680Y-63352944D01*
X130172432Y-63352944D01*
X130099511Y-63367449D01*
X130037690Y-63408755D01*
X130935350Y-62511096D01*
X130935350Y-62511095D01*
X130677793Y-62302531D01*
X130352543Y-62091310D01*
X130006994Y-61915244D01*
X129644936Y-61776262D01*
X129270330Y-61675887D01*
X129270323Y-61675886D01*
X128887287Y-61615219D01*
X128500001Y-61594922D01*
X128499999Y-61594922D01*
X128112712Y-61615219D01*
X127729676Y-61675886D01*
X127729669Y-61675887D01*
X127355063Y-61776262D01*
X126993005Y-61915244D01*
X126647456Y-62091310D01*
X126322206Y-62302531D01*
X126064648Y-62511095D01*
X126064648Y-62511096D01*
X126962306Y-63408754D01*
X126900489Y-63367449D01*
X126827568Y-63352944D01*
X126778320Y-63352944D01*
X126705399Y-63367449D01*
X126622704Y-63422704D01*
X126567449Y-63505399D01*
X126548046Y-63602944D01*
X126567449Y-63700489D01*
X126608753Y-63762305D01*
X125711096Y-62864648D01*
X125711095Y-62864648D01*
X125502531Y-63122206D01*
X125291310Y-63447456D01*
X125115244Y-63793005D01*
X124976262Y-64155063D01*
X124875887Y-64529669D01*
X124875886Y-64529676D01*
X124815219Y-64912712D01*
X124794922Y-65299999D01*
X124794922Y-65300000D01*
X120000500Y-65300000D01*
X120000500Y-62002036D01*
X120000633Y-61997981D01*
X120005982Y-61916360D01*
X120009132Y-61872318D01*
X120018986Y-61734536D01*
X120020014Y-61726903D01*
X120043153Y-61610579D01*
X120046559Y-61594922D01*
X120074533Y-61466323D01*
X120076392Y-61459625D01*
X120116815Y-61340543D01*
X120166159Y-61208251D01*
X120168633Y-61202520D01*
X120225583Y-61087036D01*
X120292179Y-60965076D01*
X120295019Y-60960384D01*
X120366563Y-60853311D01*
X120368428Y-60850676D01*
X120450291Y-60741321D01*
X120453244Y-60737678D01*
X120538503Y-60640459D01*
X120541198Y-60637581D01*
X120637581Y-60541198D01*
X120640459Y-60538503D01*
X120737678Y-60453244D01*
X120741321Y-60450291D01*
X120850676Y-60368428D01*
X120853311Y-60366563D01*
X120960384Y-60295019D01*
X120965076Y-60292179D01*
X121087036Y-60225583D01*
X121202520Y-60168633D01*
X121208251Y-60166159D01*
X121340543Y-60116815D01*
X121459625Y-60076392D01*
X121466323Y-60074533D01*
X121610548Y-60043158D01*
X121726903Y-60020014D01*
X121734536Y-60018986D01*
X121916244Y-60005989D01*
X121969211Y-60002517D01*
X121997981Y-60000633D01*
X122002036Y-60000500D01*
X152964128Y-60000500D01*
X153031167Y-60020185D01*
G37*
%TD.AperFunction*%
%TD*%
%TA.AperFunction,Conductor*%
%TO.N,Net-(Z8-Pad1)*%
G36*
X156076059Y-88878427D02*
G01*
X156078240Y-88881445D01*
X156295951Y-89314551D01*
X156296604Y-89323482D01*
X156293244Y-89328574D01*
X155907747Y-89669155D01*
X155899278Y-89672065D01*
X155892253Y-89669155D01*
X155506755Y-89328574D01*
X155502824Y-89320528D01*
X155504047Y-89314554D01*
X155721760Y-88881444D01*
X155728538Y-88875593D01*
X155732214Y-88875000D01*
X156067786Y-88875000D01*
X156076059Y-88878427D01*
G37*
%TD.AperFunction*%
%TD*%
%TA.AperFunction,Conductor*%
%TO.N,/OUT*%
G36*
X156075698Y-96428427D02*
G01*
X156078100Y-96431912D01*
X156306318Y-96940754D01*
X156306577Y-96949705D01*
X156303547Y-96954169D01*
X155932904Y-97293758D01*
X155924489Y-97296820D01*
X155917096Y-97293758D01*
X155545928Y-96953689D01*
X155542143Y-96945573D01*
X155542799Y-96941168D01*
X155722245Y-96432806D01*
X155728230Y-96426145D01*
X155733278Y-96425000D01*
X156067425Y-96425000D01*
X156075698Y-96428427D01*
G37*
%TD.AperFunction*%
%TD*%
%TA.AperFunction,Conductor*%
%TO.N,Net-(Z10-Pad2)*%
G36*
X155907747Y-79130844D02*
G01*
X156293244Y-79471424D01*
X156297175Y-79479470D01*
X156295951Y-79485447D01*
X156078240Y-79918555D01*
X156071462Y-79924407D01*
X156067786Y-79925000D01*
X155732214Y-79925000D01*
X155723941Y-79921573D01*
X155721760Y-79918555D01*
X155504047Y-79485445D01*
X155503395Y-79476516D01*
X155506753Y-79471426D01*
X155892253Y-79130843D01*
X155900722Y-79127934D01*
X155907747Y-79130844D01*
G37*
%TD.AperFunction*%
%TD*%
%TA.AperFunction,Conductor*%
%TO.N,Net-(J3-In)*%
G36*
X125647701Y-104306263D02*
G01*
X126645702Y-105121489D01*
X126649941Y-105129377D01*
X126650000Y-105130550D01*
X126650000Y-105469449D01*
X126646573Y-105477722D01*
X126645702Y-105478510D01*
X125647701Y-106293736D01*
X125639126Y-106296316D01*
X125632588Y-106293474D01*
X125308820Y-106009725D01*
X124509038Y-105308797D01*
X124505075Y-105300769D01*
X124507951Y-105292289D01*
X124509032Y-105291207D01*
X125632589Y-104306524D01*
X125641068Y-104303649D01*
X125647701Y-104306263D01*
G37*
%TD.AperFunction*%
%TD*%
%TA.AperFunction,Conductor*%
%TO.N,Net-(Z1-Pad2)*%
G36*
X138750110Y-104943277D02*
G01*
X138753689Y-104945928D01*
X139093758Y-105317096D01*
X139096820Y-105325511D01*
X139093758Y-105332904D01*
X138754169Y-105703547D01*
X138746053Y-105707332D01*
X138740754Y-105706318D01*
X138231912Y-105478100D01*
X138225766Y-105471588D01*
X138225000Y-105467425D01*
X138225000Y-105133277D01*
X138228427Y-105125004D01*
X138232803Y-105122245D01*
X138741168Y-104942799D01*
X138750110Y-104943277D01*
G37*
%TD.AperFunction*%
%TD*%
%TA.AperFunction,Conductor*%
%TO.N,Net-(J4-In)*%
G36*
X155907711Y-64507951D02*
G01*
X155908792Y-64509032D01*
X156609725Y-65308820D01*
X156893474Y-65632588D01*
X156896350Y-65641068D01*
X156893736Y-65647701D01*
X156078511Y-66645702D01*
X156070623Y-66649941D01*
X156069450Y-66650000D01*
X155730550Y-66650000D01*
X155722277Y-66646573D01*
X155721489Y-66645702D01*
X154906263Y-65647701D01*
X154903683Y-65639126D01*
X154906524Y-65632589D01*
X155891202Y-64509038D01*
X155899231Y-64505075D01*
X155907711Y-64507951D01*
G37*
%TD.AperFunction*%
%TD*%
%TA.AperFunction,Conductor*%
%TO.N,/OUT*%
G36*
X155932902Y-97306240D02*
G01*
X156262200Y-97607947D01*
X156303547Y-97645830D01*
X156307332Y-97653946D01*
X156306318Y-97659245D01*
X156078100Y-98168088D01*
X156071588Y-98174234D01*
X156067425Y-98175000D01*
X155733278Y-98175000D01*
X155725005Y-98171573D01*
X155722245Y-98167194D01*
X155542799Y-97658831D01*
X155543277Y-97649889D01*
X155545925Y-97646312D01*
X155917097Y-97306240D01*
X155925511Y-97303179D01*
X155932902Y-97306240D01*
G37*
%TD.AperFunction*%
%TD*%
%TA.AperFunction,Conductor*%
%TO.N,Net-(Z8-Pad1)*%
G36*
X155907747Y-86730844D02*
G01*
X156293244Y-87071424D01*
X156297175Y-87079470D01*
X156295951Y-87085447D01*
X156078240Y-87518555D01*
X156071462Y-87524407D01*
X156067786Y-87525000D01*
X155732214Y-87525000D01*
X155723941Y-87521573D01*
X155721760Y-87518555D01*
X155504047Y-87085445D01*
X155503395Y-87076516D01*
X155506753Y-87071426D01*
X155892253Y-86730843D01*
X155900722Y-86727934D01*
X155907747Y-86730844D01*
G37*
%TD.AperFunction*%
%TD*%
%TA.AperFunction,Conductor*%
%TO.N,Net-(Z1-Pad2)*%
G36*
X139458831Y-104942799D02*
G01*
X139635445Y-105005141D01*
X139967195Y-105122244D01*
X139973855Y-105128229D01*
X139975000Y-105133277D01*
X139975000Y-105467425D01*
X139971573Y-105475698D01*
X139968088Y-105478100D01*
X139459245Y-105706318D01*
X139450294Y-105706577D01*
X139445830Y-105703547D01*
X139106241Y-105332903D01*
X139103179Y-105324488D01*
X139106239Y-105317098D01*
X139446311Y-104945927D01*
X139454426Y-104942143D01*
X139458831Y-104942799D01*
G37*
%TD.AperFunction*%
%TD*%
%TA.AperFunction,Conductor*%
%TO.N,+3V3*%
G36*
X157829757Y-99866666D02*
G01*
X158355905Y-100121802D01*
X158361854Y-100128496D01*
X158362500Y-100132330D01*
X158362500Y-100467669D01*
X158359073Y-100475942D01*
X158355905Y-100478197D01*
X157829759Y-100733332D01*
X157820820Y-100733858D01*
X157815361Y-100729913D01*
X157622811Y-100478197D01*
X157491937Y-100307108D01*
X157489633Y-100298455D01*
X157491938Y-100292891D01*
X157815362Y-99870084D01*
X157823109Y-99865597D01*
X157829757Y-99866666D01*
G37*
%TD.AperFunction*%
%TD*%
%TA.AperFunction,Conductor*%
%TO.N,+1V8*%
G36*
X125979614Y-90453621D02*
G01*
X125987705Y-90457458D01*
X125990376Y-90462462D01*
X126376840Y-92004535D01*
X126375527Y-92013393D01*
X126373764Y-92015652D01*
X126135652Y-92253764D01*
X126127379Y-92257191D01*
X126124535Y-92256840D01*
X124582462Y-91870376D01*
X124575270Y-91865041D01*
X124573621Y-91859614D01*
X124499941Y-90392211D01*
X124502948Y-90383778D01*
X124511039Y-90379941D01*
X124512199Y-90379941D01*
X125979614Y-90453621D01*
G37*
%TD.AperFunction*%
%TD*%
%TA.AperFunction,Conductor*%
%TO.N,+1V8*%
G36*
X151773290Y-100167797D02*
G01*
X151779024Y-100174093D01*
X152080300Y-100959508D01*
X152080063Y-100968459D01*
X152077649Y-100971971D01*
X151947066Y-101102554D01*
X151938793Y-101105981D01*
X151934427Y-101105136D01*
X151124549Y-100779402D01*
X151118152Y-100773135D01*
X151118060Y-100764181D01*
X151297265Y-100329214D01*
X151303584Y-100322872D01*
X151304316Y-100322596D01*
X151764357Y-100167198D01*
X151773290Y-100167797D01*
G37*
%TD.AperFunction*%
%TD*%
%TA.AperFunction,Conductor*%
%TO.N,Net-(J4-In)*%
G36*
X156076059Y-76678427D02*
G01*
X156078240Y-76681445D01*
X156295951Y-77114551D01*
X156296604Y-77123482D01*
X156293244Y-77128574D01*
X155907747Y-77469155D01*
X155899278Y-77472065D01*
X155892253Y-77469155D01*
X155506755Y-77128574D01*
X155502824Y-77120528D01*
X155504047Y-77114554D01*
X155721760Y-76681444D01*
X155728538Y-76675593D01*
X155732214Y-76675000D01*
X156067786Y-76675000D01*
X156076059Y-76678427D01*
G37*
%TD.AperFunction*%
%TD*%
%TA.AperFunction,Conductor*%
%TO.N,Net-(J4-In)*%
G36*
X156074995Y-73628427D02*
G01*
X156077755Y-73632806D01*
X156257200Y-74141168D01*
X156256722Y-74150110D01*
X156254071Y-74153689D01*
X155882904Y-74493758D01*
X155874489Y-74496820D01*
X155867096Y-74493758D01*
X155496452Y-74154169D01*
X155492667Y-74146053D01*
X155493680Y-74140756D01*
X155721899Y-73631912D01*
X155728412Y-73625766D01*
X155732575Y-73625000D01*
X156066722Y-73625000D01*
X156074995Y-73628427D01*
G37*
%TD.AperFunction*%
%TD*%
%TA.AperFunction,Conductor*%
%TO.N,/IN*%
G36*
X151685445Y-104904047D02*
G01*
X152118555Y-105121760D01*
X152124407Y-105128538D01*
X152125000Y-105132214D01*
X152125000Y-105467785D01*
X152121573Y-105476058D01*
X152118555Y-105478239D01*
X151685447Y-105695951D01*
X151676516Y-105696604D01*
X151671424Y-105693244D01*
X151330844Y-105307747D01*
X151327934Y-105299278D01*
X151330844Y-105292253D01*
X151671425Y-104906754D01*
X151679470Y-104902824D01*
X151685445Y-104904047D01*
G37*
%TD.AperFunction*%
%TD*%
%TA.AperFunction,Conductor*%
%TO.N,Net-(Z3-Pad2)*%
G36*
X144085445Y-104904047D02*
G01*
X144518555Y-105121760D01*
X144524407Y-105128538D01*
X144525000Y-105132214D01*
X144525000Y-105467785D01*
X144521573Y-105476058D01*
X144518555Y-105478239D01*
X144085447Y-105695951D01*
X144076516Y-105696604D01*
X144071424Y-105693244D01*
X143730844Y-105307747D01*
X143727934Y-105299278D01*
X143730844Y-105292253D01*
X144071425Y-104906754D01*
X144079470Y-104902824D01*
X144085445Y-104904047D01*
G37*
%TD.AperFunction*%
%TD*%
M02*
