%TF.GenerationSoftware,KiCad,Pcbnew,7.0.6*%
%TF.CreationDate,2023-07-22T11:20:37-03:00*%
%TF.ProjectId,MiniAsic_2020,4d696e69-4173-4696-935f-323032302e6b,rev?*%
%TF.SameCoordinates,Original*%
%TF.FileFunction,Copper,L2,Bot*%
%TF.FilePolarity,Positive*%
%FSLAX46Y46*%
G04 Gerber Fmt 4.6, Leading zero omitted, Abs format (unit mm)*
G04 Created by KiCad (PCBNEW 7.0.6) date 2023-07-22 11:20:37*
%MOMM*%
%LPD*%
G01*
G04 APERTURE LIST*
G04 Aperture macros list*
%AMRoundRect*
0 Rectangle with rounded corners*
0 $1 Rounding radius*
0 $2 $3 $4 $5 $6 $7 $8 $9 X,Y pos of 4 corners*
0 Add a 4 corners polygon primitive as box body*
4,1,4,$2,$3,$4,$5,$6,$7,$8,$9,$2,$3,0*
0 Add four circle primitives for the rounded corners*
1,1,$1+$1,$2,$3*
1,1,$1+$1,$4,$5*
1,1,$1+$1,$6,$7*
1,1,$1+$1,$8,$9*
0 Add four rect primitives between the rounded corners*
20,1,$1+$1,$2,$3,$4,$5,0*
20,1,$1+$1,$4,$5,$6,$7,0*
20,1,$1+$1,$6,$7,$8,$9,0*
20,1,$1+$1,$8,$9,$2,$3,0*%
G04 Aperture macros list end*
%TA.AperFunction,ComponentPad*%
%ADD10RoundRect,0.200100X0.949900X-0.949900X0.949900X0.949900X-0.949900X0.949900X-0.949900X-0.949900X0*%
%TD*%
%TA.AperFunction,ComponentPad*%
%ADD11C,2.500000*%
%TD*%
%TA.AperFunction,ComponentPad*%
%ADD12C,0.800000*%
%TD*%
%TA.AperFunction,ComponentPad*%
%ADD13C,6.400000*%
%TD*%
%TA.AperFunction,ComponentPad*%
%ADD14RoundRect,0.200100X-0.949900X-0.949900X0.949900X-0.949900X0.949900X0.949900X-0.949900X0.949900X0*%
%TD*%
%TA.AperFunction,ComponentPad*%
%ADD15R,3.000000X3.000000*%
%TD*%
%TA.AperFunction,ComponentPad*%
%ADD16C,3.000000*%
%TD*%
%TA.AperFunction,ViaPad*%
%ADD17C,0.700000*%
%TD*%
G04 APERTURE END LIST*
D10*
%TO.P,J3,1,In*%
%TO.N,Net-(J3-In)*%
X124500000Y-105300000D03*
D11*
%TO.P,J3,2,Ext*%
%TO.N,GND*%
X121960000Y-107840000D03*
X127040000Y-107840000D03*
X121960000Y-102760000D03*
X127040000Y-102760000D03*
%TD*%
D12*
%TO.P,H3,1,1*%
%TO.N,GND*%
X126100000Y-113300000D03*
X126802944Y-111602944D03*
X126802944Y-114997056D03*
X128500000Y-110900000D03*
D13*
X128500000Y-113300000D03*
D12*
X128500000Y-115700000D03*
X130197056Y-111602944D03*
X130197056Y-114997056D03*
X130900000Y-113300000D03*
%TD*%
D14*
%TO.P,J4,1,In*%
%TO.N,Net-(J4-In)*%
X155900000Y-64500000D03*
D11*
%TO.P,J4,2,Ext*%
%TO.N,GND*%
X153360000Y-61960000D03*
X153360000Y-67040000D03*
X158440000Y-61960000D03*
X158440000Y-67040000D03*
%TD*%
D12*
%TO.P,H1,1,1*%
%TO.N,GND*%
X126100000Y-65300000D03*
X126802944Y-63602944D03*
X126802944Y-66997056D03*
X128500000Y-62900000D03*
D13*
X128500000Y-65300000D03*
D12*
X128500000Y-67700000D03*
X130197056Y-63602944D03*
X130197056Y-66997056D03*
X130900000Y-65300000D03*
%TD*%
D15*
%TO.P,J2,1,Pin_1*%
%TO.N,+3V3*%
X167600000Y-100300000D03*
D16*
%TO.P,J2,2,Pin_2*%
%TO.N,GND*%
X167600000Y-105380000D03*
%TD*%
D15*
%TO.P,J1,1,Pin_1*%
%TO.N,/VG*%
X124500000Y-85300000D03*
D16*
%TO.P,J1,2,Pin_2*%
%TO.N,+1V8*%
X124500000Y-90380000D03*
%TO.P,J1,3,Pin_3*%
%TO.N,GND*%
X124500000Y-95460000D03*
%TD*%
D12*
%TO.P,H2,1,1*%
%TO.N,GND*%
X166100000Y-65300000D03*
X166802944Y-63602944D03*
X166802944Y-66997056D03*
X168500000Y-62900000D03*
D13*
X168500000Y-65300000D03*
D12*
X168500000Y-67700000D03*
X170197056Y-63602944D03*
X170197056Y-66997056D03*
X170900000Y-65300000D03*
%TD*%
%TO.P,H4,1,1*%
%TO.N,GND*%
X166100000Y-113300000D03*
X166802944Y-111602944D03*
X166802944Y-114997056D03*
X168500000Y-110900000D03*
D13*
X168500000Y-113300000D03*
D12*
X168500000Y-115700000D03*
X170197056Y-111602944D03*
X170197056Y-114997056D03*
X170900000Y-113300000D03*
%TD*%
D17*
%TO.N,GND*%
X172500000Y-85300000D03*
X172500000Y-61300000D03*
X140500000Y-61300000D03*
X148500000Y-69300000D03*
X148500000Y-101300000D03*
X132500000Y-109300000D03*
X124500000Y-69300000D03*
X164500000Y-117300000D03*
X148500000Y-109300000D03*
X140500000Y-117300000D03*
X172500000Y-69300000D03*
X140500000Y-101300000D03*
X132500000Y-101300000D03*
X164500000Y-93300000D03*
X172500000Y-109300000D03*
X132500000Y-93300000D03*
X140500000Y-93300000D03*
X164500000Y-69300000D03*
X148500000Y-85300000D03*
X164500000Y-101300000D03*
X172500000Y-101300000D03*
X164500000Y-61300000D03*
X164500000Y-85300000D03*
X140500000Y-77300000D03*
X124500000Y-77300000D03*
X140500000Y-69300000D03*
X164500000Y-109300000D03*
X172500000Y-77300000D03*
X148500000Y-61300000D03*
X140500000Y-109300000D03*
X124500000Y-61300000D03*
X172500000Y-93300000D03*
X172500000Y-117300000D03*
X132500000Y-69300000D03*
X140500000Y-85300000D03*
X124500000Y-101300000D03*
X132500000Y-77300000D03*
X132500000Y-61300000D03*
X132500000Y-117300000D03*
X148500000Y-93300000D03*
X156500000Y-109300000D03*
X164500000Y-77300000D03*
X124500000Y-117300000D03*
X148500000Y-117300000D03*
X148500000Y-77300000D03*
X124500000Y-109300000D03*
X156500000Y-117300000D03*
%TD*%
%TA.AperFunction,Conductor*%
%TO.N,GND*%
G36*
X170356421Y-114802868D02*
G01*
X170294601Y-114761561D01*
X170221680Y-114747056D01*
X170172432Y-114747056D01*
X170099511Y-114761561D01*
X170016816Y-114816816D01*
X169961561Y-114899511D01*
X169942158Y-114997056D01*
X169961561Y-115094601D01*
X170002867Y-115156420D01*
X169444180Y-114597733D01*
X169634870Y-114434870D01*
X169797733Y-114244180D01*
X170356421Y-114802868D01*
G37*
%TD.AperFunction*%
%TA.AperFunction,Conductor*%
G36*
X167365130Y-114434870D02*
G01*
X167555819Y-114597733D01*
X166997135Y-115156416D01*
X167038439Y-115094601D01*
X167057842Y-114997056D01*
X167038439Y-114899511D01*
X166983184Y-114816816D01*
X166900489Y-114761561D01*
X166827568Y-114747056D01*
X166778320Y-114747056D01*
X166705399Y-114761561D01*
X166643577Y-114802868D01*
X167202266Y-114244180D01*
X167365130Y-114434870D01*
G37*
%TD.AperFunction*%
%TA.AperFunction,Conductor*%
G36*
X167555819Y-112002266D02*
G01*
X167365130Y-112165130D01*
X167202266Y-112355818D01*
X166643582Y-111797134D01*
X166705399Y-111838439D01*
X166778320Y-111852944D01*
X166827568Y-111852944D01*
X166900489Y-111838439D01*
X166983184Y-111783184D01*
X167038439Y-111700489D01*
X167057842Y-111602944D01*
X167038439Y-111505399D01*
X166997133Y-111443581D01*
X167555819Y-112002266D01*
G37*
%TD.AperFunction*%
%TA.AperFunction,Conductor*%
G36*
X169961561Y-111505399D02*
G01*
X169942158Y-111602944D01*
X169961561Y-111700489D01*
X170016816Y-111783184D01*
X170099511Y-111838439D01*
X170172432Y-111852944D01*
X170221680Y-111852944D01*
X170294601Y-111838439D01*
X170356415Y-111797135D01*
X169797732Y-112355818D01*
X169634870Y-112165130D01*
X169444180Y-112002266D01*
X170002867Y-111443578D01*
X169961561Y-111505399D01*
G37*
%TD.AperFunction*%
%TA.AperFunction,Conductor*%
G36*
X130356421Y-66802868D02*
G01*
X130294601Y-66761561D01*
X130221680Y-66747056D01*
X130172432Y-66747056D01*
X130099511Y-66761561D01*
X130016816Y-66816816D01*
X129961561Y-66899511D01*
X129942158Y-66997056D01*
X129961561Y-67094601D01*
X130002867Y-67156420D01*
X129444180Y-66597733D01*
X129634870Y-66434870D01*
X129797733Y-66244180D01*
X130356421Y-66802868D01*
G37*
%TD.AperFunction*%
%TA.AperFunction,Conductor*%
G36*
X127365130Y-66434870D02*
G01*
X127555819Y-66597733D01*
X126997135Y-67156416D01*
X127038439Y-67094601D01*
X127057842Y-66997056D01*
X127038439Y-66899511D01*
X126983184Y-66816816D01*
X126900489Y-66761561D01*
X126827568Y-66747056D01*
X126778320Y-66747056D01*
X126705399Y-66761561D01*
X126643577Y-66802868D01*
X127202266Y-66244180D01*
X127365130Y-66434870D01*
G37*
%TD.AperFunction*%
%TA.AperFunction,Conductor*%
G36*
X127555819Y-64002266D02*
G01*
X127365130Y-64165130D01*
X127202266Y-64355818D01*
X126643582Y-63797134D01*
X126705399Y-63838439D01*
X126778320Y-63852944D01*
X126827568Y-63852944D01*
X126900489Y-63838439D01*
X126983184Y-63783184D01*
X127038439Y-63700489D01*
X127057842Y-63602944D01*
X127038439Y-63505399D01*
X126997133Y-63443581D01*
X127555819Y-64002266D01*
G37*
%TD.AperFunction*%
%TA.AperFunction,Conductor*%
G36*
X129961561Y-63505399D02*
G01*
X129942158Y-63602944D01*
X129961561Y-63700489D01*
X130016816Y-63783184D01*
X130099511Y-63838439D01*
X130172432Y-63852944D01*
X130221680Y-63852944D01*
X130294601Y-63838439D01*
X130356414Y-63797136D01*
X129797732Y-64355818D01*
X129634870Y-64165130D01*
X129444180Y-64002266D01*
X130002867Y-63443578D01*
X129961561Y-63505399D01*
G37*
%TD.AperFunction*%
%TA.AperFunction,Conductor*%
G36*
X170356421Y-66802868D02*
G01*
X170294601Y-66761561D01*
X170221680Y-66747056D01*
X170172432Y-66747056D01*
X170099511Y-66761561D01*
X170016816Y-66816816D01*
X169961561Y-66899511D01*
X169942158Y-66997056D01*
X169961561Y-67094601D01*
X170002867Y-67156420D01*
X169444180Y-66597733D01*
X169634870Y-66434870D01*
X169797733Y-66244180D01*
X170356421Y-66802868D01*
G37*
%TD.AperFunction*%
%TA.AperFunction,Conductor*%
G36*
X167365130Y-66434870D02*
G01*
X167555819Y-66597733D01*
X166997135Y-67156416D01*
X167038439Y-67094601D01*
X167057842Y-66997056D01*
X167038439Y-66899511D01*
X166983184Y-66816816D01*
X166900489Y-66761561D01*
X166827568Y-66747056D01*
X166778320Y-66747056D01*
X166705399Y-66761561D01*
X166643577Y-66802868D01*
X167202266Y-66244180D01*
X167365130Y-66434870D01*
G37*
%TD.AperFunction*%
%TA.AperFunction,Conductor*%
G36*
X167555819Y-64002266D02*
G01*
X167365130Y-64165130D01*
X167202266Y-64355818D01*
X166643582Y-63797134D01*
X166705399Y-63838439D01*
X166778320Y-63852944D01*
X166827568Y-63852944D01*
X166900489Y-63838439D01*
X166983184Y-63783184D01*
X167038439Y-63700489D01*
X167057842Y-63602944D01*
X167038439Y-63505399D01*
X166997133Y-63443581D01*
X167555819Y-64002266D01*
G37*
%TD.AperFunction*%
%TA.AperFunction,Conductor*%
G36*
X169961561Y-63505399D02*
G01*
X169942158Y-63602944D01*
X169961561Y-63700489D01*
X170016816Y-63783184D01*
X170099511Y-63838439D01*
X170172432Y-63852944D01*
X170221680Y-63852944D01*
X170294601Y-63838439D01*
X170356415Y-63797135D01*
X169797732Y-64355818D01*
X169634870Y-64165130D01*
X169444180Y-64002266D01*
X170002867Y-63443578D01*
X169961561Y-63505399D01*
G37*
%TD.AperFunction*%
%TA.AperFunction,Conductor*%
G36*
X153031167Y-60020185D02*
G01*
X153076922Y-60072989D01*
X153086866Y-60142147D01*
X153057841Y-60205703D01*
X152999063Y-60243477D01*
X152982609Y-60247115D01*
X152969500Y-60249090D01*
X152969494Y-60249092D01*
X152718858Y-60326404D01*
X152718854Y-60326405D01*
X152482550Y-60440204D01*
X152482546Y-60440206D01*
X152310832Y-60557278D01*
X152961391Y-61207837D01*
X152842569Y-61279331D01*
X152708342Y-61406477D01*
X152605138Y-61558691D01*
X151957874Y-60911428D01*
X151910027Y-60971426D01*
X151778883Y-61198573D01*
X151683058Y-61442729D01*
X151624693Y-61698449D01*
X151624692Y-61698454D01*
X151605093Y-61959995D01*
X151605093Y-61960004D01*
X151624692Y-62221545D01*
X151624693Y-62221550D01*
X151683058Y-62477270D01*
X151778883Y-62721426D01*
X151778882Y-62721426D01*
X151910030Y-62948577D01*
X151957873Y-63008571D01*
X152608766Y-62357678D01*
X152652316Y-62439822D01*
X152772009Y-62580735D01*
X152919195Y-62692623D01*
X152961402Y-62712150D01*
X152310831Y-63362720D01*
X152482546Y-63479793D01*
X152482550Y-63479795D01*
X152718854Y-63593594D01*
X152718858Y-63593595D01*
X152969494Y-63670907D01*
X152969500Y-63670909D01*
X153228848Y-63709999D01*
X153228857Y-63710000D01*
X153491143Y-63710000D01*
X153491151Y-63709999D01*
X153750499Y-63670909D01*
X153750505Y-63670907D01*
X154001143Y-63593595D01*
X154237445Y-63479798D01*
X154237447Y-63479797D01*
X154305648Y-63433299D01*
X154372127Y-63411799D01*
X154439677Y-63429653D01*
X154486852Y-63481193D01*
X154499500Y-63535753D01*
X154499500Y-65464246D01*
X154479815Y-65531285D01*
X154427011Y-65577040D01*
X154357853Y-65586984D01*
X154305649Y-65566700D01*
X154237454Y-65520206D01*
X154237445Y-65520201D01*
X154001142Y-65406404D01*
X154001144Y-65406404D01*
X153750505Y-65329092D01*
X153750499Y-65329090D01*
X153491151Y-65290000D01*
X153228848Y-65290000D01*
X152969500Y-65329090D01*
X152969494Y-65329092D01*
X152718858Y-65406404D01*
X152718854Y-65406405D01*
X152482550Y-65520204D01*
X152482546Y-65520206D01*
X152310832Y-65637278D01*
X152961391Y-66287837D01*
X152842569Y-66359331D01*
X152708342Y-66486477D01*
X152605138Y-66638691D01*
X151957874Y-65991428D01*
X151910027Y-66051426D01*
X151778883Y-66278573D01*
X151683058Y-66522729D01*
X151624693Y-66778449D01*
X151624692Y-66778454D01*
X151605093Y-67039995D01*
X151605093Y-67040004D01*
X151624692Y-67301545D01*
X151624693Y-67301550D01*
X151683058Y-67557270D01*
X151778883Y-67801426D01*
X151778882Y-67801426D01*
X151910030Y-68028577D01*
X151957873Y-68088571D01*
X152608766Y-67437678D01*
X152652316Y-67519822D01*
X152772009Y-67660735D01*
X152919195Y-67772623D01*
X152961402Y-67792150D01*
X152310831Y-68442720D01*
X152482546Y-68559793D01*
X152482550Y-68559795D01*
X152718854Y-68673594D01*
X152718858Y-68673595D01*
X152969494Y-68750907D01*
X152969500Y-68750909D01*
X153228848Y-68789999D01*
X153228857Y-68790000D01*
X153491143Y-68790000D01*
X153491151Y-68789999D01*
X153750499Y-68750909D01*
X153750505Y-68750907D01*
X154001143Y-68673595D01*
X154237445Y-68559798D01*
X154237456Y-68559791D01*
X154409167Y-68442720D01*
X153758609Y-67792161D01*
X153877431Y-67720669D01*
X154011658Y-67593523D01*
X154114861Y-67441308D01*
X154762124Y-68088571D01*
X154809974Y-68028570D01*
X154941116Y-67801426D01*
X155036941Y-67557270D01*
X155095306Y-67301550D01*
X155095307Y-67301545D01*
X155114907Y-67040004D01*
X155114907Y-67039995D01*
X155095307Y-66778454D01*
X155095306Y-66778449D01*
X155036941Y-66522729D01*
X154941118Y-66278576D01*
X154830222Y-66086501D01*
X154813749Y-66018600D01*
X154836601Y-65952573D01*
X154891522Y-65909383D01*
X154937609Y-65900500D01*
X156862391Y-65900500D01*
X156929430Y-65920185D01*
X156975185Y-65972989D01*
X156985129Y-66042147D01*
X156969778Y-66086501D01*
X156858881Y-66278576D01*
X156763058Y-66522729D01*
X156704693Y-66778449D01*
X156704692Y-66778454D01*
X156685093Y-67039995D01*
X156685093Y-67040004D01*
X156704692Y-67301545D01*
X156704693Y-67301550D01*
X156763058Y-67557270D01*
X156858883Y-67801426D01*
X156858882Y-67801426D01*
X156990030Y-68028577D01*
X157037873Y-68088571D01*
X157688766Y-67437678D01*
X157732316Y-67519822D01*
X157852009Y-67660735D01*
X157999195Y-67772623D01*
X158041402Y-67792150D01*
X157390831Y-68442720D01*
X157562546Y-68559793D01*
X157562550Y-68559795D01*
X157798854Y-68673594D01*
X157798858Y-68673595D01*
X158049494Y-68750907D01*
X158049500Y-68750909D01*
X158308848Y-68789999D01*
X158308857Y-68790000D01*
X158571143Y-68790000D01*
X158571151Y-68789999D01*
X158830499Y-68750909D01*
X158830505Y-68750907D01*
X159081143Y-68673595D01*
X159317445Y-68559798D01*
X159317456Y-68559791D01*
X159489167Y-68442720D01*
X158838609Y-67792161D01*
X158957431Y-67720669D01*
X159091658Y-67593523D01*
X159194861Y-67441308D01*
X159842124Y-68088571D01*
X159889974Y-68028570D01*
X160021116Y-67801426D01*
X160116941Y-67557270D01*
X160175306Y-67301550D01*
X160175307Y-67301545D01*
X160194907Y-67040004D01*
X160194907Y-67039995D01*
X160175307Y-66778454D01*
X160175306Y-66778449D01*
X160116941Y-66522729D01*
X160021116Y-66278573D01*
X160021117Y-66278573D01*
X159889971Y-66051426D01*
X159842125Y-65991427D01*
X159191232Y-66642319D01*
X159147684Y-66560178D01*
X159027991Y-66419265D01*
X158880805Y-66307377D01*
X158838596Y-66287849D01*
X159489167Y-65637278D01*
X159317447Y-65520202D01*
X159317445Y-65520201D01*
X159081142Y-65406404D01*
X159081144Y-65406404D01*
X158830505Y-65329092D01*
X158830499Y-65329090D01*
X158637497Y-65300000D01*
X164794922Y-65300000D01*
X164815219Y-65687287D01*
X164875886Y-66070323D01*
X164875887Y-66070330D01*
X164976262Y-66444936D01*
X165115244Y-66806994D01*
X165291310Y-67152543D01*
X165502531Y-67477793D01*
X165711095Y-67735350D01*
X165711096Y-67735350D01*
X166608756Y-66837689D01*
X166567449Y-66899511D01*
X166548046Y-66997056D01*
X166567449Y-67094601D01*
X166622704Y-67177296D01*
X166705399Y-67232551D01*
X166778320Y-67247056D01*
X166827568Y-67247056D01*
X166900489Y-67232551D01*
X166962304Y-67191247D01*
X166064648Y-68088903D01*
X166064649Y-68088904D01*
X166322206Y-68297468D01*
X166647456Y-68508689D01*
X166993005Y-68684755D01*
X167355063Y-68823737D01*
X167729669Y-68924112D01*
X167729676Y-68924113D01*
X168112712Y-68984780D01*
X168499999Y-69005078D01*
X168500001Y-69005078D01*
X168887287Y-68984780D01*
X169270323Y-68924113D01*
X169270330Y-68924112D01*
X169644936Y-68823737D01*
X170006994Y-68684755D01*
X170352543Y-68508689D01*
X170677783Y-68297476D01*
X170677785Y-68297475D01*
X170935349Y-68088902D01*
X170037691Y-67191244D01*
X170099511Y-67232551D01*
X170172432Y-67247056D01*
X170221680Y-67247056D01*
X170294601Y-67232551D01*
X170377296Y-67177296D01*
X170432551Y-67094601D01*
X170451954Y-66997056D01*
X170432551Y-66899511D01*
X170391243Y-66837690D01*
X171288902Y-67735349D01*
X171497475Y-67477785D01*
X171497476Y-67477783D01*
X171708689Y-67152543D01*
X171884755Y-66806994D01*
X172023737Y-66444936D01*
X172124112Y-66070330D01*
X172124113Y-66070323D01*
X172184780Y-65687287D01*
X172205078Y-65300000D01*
X172205078Y-65299999D01*
X172184780Y-64912712D01*
X172124113Y-64529676D01*
X172124112Y-64529669D01*
X172023737Y-64155063D01*
X171884755Y-63793005D01*
X171708689Y-63447456D01*
X171497468Y-63122206D01*
X171288904Y-62864649D01*
X171288903Y-62864648D01*
X170391247Y-63762303D01*
X170432551Y-63700489D01*
X170451954Y-63602944D01*
X170432551Y-63505399D01*
X170377296Y-63422704D01*
X170294601Y-63367449D01*
X170221680Y-63352944D01*
X170172432Y-63352944D01*
X170099511Y-63367449D01*
X170037690Y-63408755D01*
X170935350Y-62511096D01*
X170935350Y-62511095D01*
X170677793Y-62302531D01*
X170352543Y-62091310D01*
X170006994Y-61915244D01*
X169644936Y-61776262D01*
X169270330Y-61675887D01*
X169270323Y-61675886D01*
X168887287Y-61615219D01*
X168500001Y-61594922D01*
X168499999Y-61594922D01*
X168112712Y-61615219D01*
X167729676Y-61675886D01*
X167729669Y-61675887D01*
X167355063Y-61776262D01*
X166993005Y-61915244D01*
X166647456Y-62091310D01*
X166322206Y-62302531D01*
X166064648Y-62511095D01*
X166064648Y-62511096D01*
X166962306Y-63408754D01*
X166900489Y-63367449D01*
X166827568Y-63352944D01*
X166778320Y-63352944D01*
X166705399Y-63367449D01*
X166622704Y-63422704D01*
X166567449Y-63505399D01*
X166548046Y-63602944D01*
X166567449Y-63700489D01*
X166608753Y-63762305D01*
X165711096Y-62864648D01*
X165711095Y-62864648D01*
X165502531Y-63122206D01*
X165291310Y-63447456D01*
X165115244Y-63793005D01*
X164976262Y-64155063D01*
X164875887Y-64529669D01*
X164875886Y-64529676D01*
X164815219Y-64912712D01*
X164794922Y-65299999D01*
X164794922Y-65300000D01*
X158637497Y-65300000D01*
X158571151Y-65290000D01*
X158308848Y-65290000D01*
X158049500Y-65329090D01*
X158049494Y-65329092D01*
X157798858Y-65406404D01*
X157798854Y-65406405D01*
X157562550Y-65520204D01*
X157562546Y-65520206D01*
X157494351Y-65566701D01*
X157427872Y-65588201D01*
X157360322Y-65570347D01*
X157313148Y-65518806D01*
X157300500Y-65464247D01*
X157300500Y-63535752D01*
X157320185Y-63468713D01*
X157372989Y-63422958D01*
X157442147Y-63413014D01*
X157494352Y-63433299D01*
X157562544Y-63479791D01*
X157562550Y-63479795D01*
X157798854Y-63593594D01*
X157798858Y-63593595D01*
X158049494Y-63670907D01*
X158049500Y-63670909D01*
X158308848Y-63709999D01*
X158308857Y-63710000D01*
X158571143Y-63710000D01*
X158571151Y-63709999D01*
X158830499Y-63670909D01*
X158830505Y-63670907D01*
X159081143Y-63593595D01*
X159317445Y-63479798D01*
X159317456Y-63479791D01*
X159489167Y-63362720D01*
X158838609Y-62712162D01*
X158957431Y-62640669D01*
X159091658Y-62513523D01*
X159194861Y-62361308D01*
X159842124Y-63008571D01*
X159889974Y-62948570D01*
X160021116Y-62721426D01*
X160116941Y-62477270D01*
X160175306Y-62221550D01*
X160175307Y-62221545D01*
X160194907Y-61960004D01*
X160194907Y-61959995D01*
X160175307Y-61698454D01*
X160175306Y-61698449D01*
X160116941Y-61442729D01*
X160021116Y-61198573D01*
X160021117Y-61198573D01*
X159889971Y-60971426D01*
X159842125Y-60911427D01*
X159191232Y-61562319D01*
X159147684Y-61480178D01*
X159027991Y-61339265D01*
X158880805Y-61227377D01*
X158838596Y-61207849D01*
X159489167Y-60557278D01*
X159317447Y-60440202D01*
X159317445Y-60440201D01*
X159081142Y-60326404D01*
X159081144Y-60326404D01*
X158830505Y-60249092D01*
X158830499Y-60249090D01*
X158817391Y-60247115D01*
X158754034Y-60217659D01*
X158716660Y-60158625D01*
X158717135Y-60088757D01*
X158755308Y-60030237D01*
X158819060Y-60001645D01*
X158835872Y-60000500D01*
X160199901Y-60000500D01*
X172997964Y-60000500D01*
X173002019Y-60000633D01*
X173037198Y-60002938D01*
X173083708Y-60005986D01*
X173265459Y-60018985D01*
X173273100Y-60020015D01*
X173366738Y-60038641D01*
X173389420Y-60043153D01*
X173415023Y-60048722D01*
X173533666Y-60074531D01*
X173540383Y-60076395D01*
X173659437Y-60116809D01*
X173756671Y-60153076D01*
X173791741Y-60166157D01*
X173797499Y-60168643D01*
X173912952Y-60225578D01*
X174034906Y-60292170D01*
X174039634Y-60295032D01*
X174096571Y-60333076D01*
X174146649Y-60366537D01*
X174149358Y-60368454D01*
X174258652Y-60450271D01*
X174262345Y-60453265D01*
X174359502Y-60538469D01*
X174362448Y-60541228D01*
X174458769Y-60637549D01*
X174461526Y-60640492D01*
X174546729Y-60737648D01*
X174549732Y-60741353D01*
X174601564Y-60810592D01*
X174631543Y-60850639D01*
X174633461Y-60853349D01*
X174704962Y-60960357D01*
X174707828Y-60965091D01*
X174774421Y-61087047D01*
X174831355Y-61202499D01*
X174833841Y-61208257D01*
X174870212Y-61305768D01*
X174883196Y-61340578D01*
X174888289Y-61355581D01*
X174923597Y-61459596D01*
X174925472Y-61466352D01*
X174956846Y-61610579D01*
X174979980Y-61726880D01*
X174981015Y-61734560D01*
X174994017Y-61916350D01*
X174999367Y-61997966D01*
X174999500Y-62002023D01*
X174999500Y-117997975D01*
X174999367Y-118002032D01*
X174994017Y-118083648D01*
X174981015Y-118265438D01*
X174979980Y-118273118D01*
X174956846Y-118389420D01*
X174925472Y-118533646D01*
X174923597Y-118540401D01*
X174889297Y-118641448D01*
X174883208Y-118659388D01*
X174883195Y-118659425D01*
X174833841Y-118791741D01*
X174831355Y-118797499D01*
X174774421Y-118912952D01*
X174707828Y-119034907D01*
X174704961Y-119039641D01*
X174633461Y-119146649D01*
X174631543Y-119149359D01*
X174549744Y-119258631D01*
X174546723Y-119262357D01*
X174461529Y-119359502D01*
X174458755Y-119362464D01*
X174362464Y-119458755D01*
X174359502Y-119461529D01*
X174262357Y-119546723D01*
X174258631Y-119549744D01*
X174149359Y-119631543D01*
X174146649Y-119633461D01*
X174039641Y-119704961D01*
X174034907Y-119707828D01*
X173912952Y-119774421D01*
X173797499Y-119831355D01*
X173791741Y-119833841D01*
X173670956Y-119878893D01*
X173659418Y-119883197D01*
X173540401Y-119923597D01*
X173533646Y-119925472D01*
X173389420Y-119956846D01*
X173273118Y-119979980D01*
X173265438Y-119981015D01*
X173083648Y-119994017D01*
X173032582Y-119997364D01*
X173002025Y-119999367D01*
X172997976Y-119999500D01*
X122002024Y-119999500D01*
X121997974Y-119999367D01*
X121959954Y-119996875D01*
X121916350Y-119994017D01*
X121734560Y-119981015D01*
X121726880Y-119979980D01*
X121610579Y-119956846D01*
X121466352Y-119925472D01*
X121459596Y-119923597D01*
X121427881Y-119912831D01*
X121340578Y-119883196D01*
X121305768Y-119870212D01*
X121208257Y-119833841D01*
X121202499Y-119831355D01*
X121087047Y-119774421D01*
X120965091Y-119707828D01*
X120960357Y-119704962D01*
X120853349Y-119633461D01*
X120850639Y-119631543D01*
X120810592Y-119601564D01*
X120741353Y-119549732D01*
X120737648Y-119546729D01*
X120640492Y-119461526D01*
X120637549Y-119458769D01*
X120541228Y-119362448D01*
X120538469Y-119359502D01*
X120505450Y-119321851D01*
X120453265Y-119262345D01*
X120450271Y-119258652D01*
X120368454Y-119149358D01*
X120366537Y-119146649D01*
X120295036Y-119039641D01*
X120292170Y-119034906D01*
X120225578Y-118912952D01*
X120168643Y-118797499D01*
X120166157Y-118791741D01*
X120153076Y-118756671D01*
X120116805Y-118659425D01*
X120076395Y-118540383D01*
X120074531Y-118533666D01*
X120043153Y-118389420D01*
X120038641Y-118366738D01*
X120020015Y-118273100D01*
X120018985Y-118265459D01*
X120005986Y-118083708D01*
X120002938Y-118037198D01*
X120000633Y-118002019D01*
X120000500Y-117997964D01*
X120000500Y-108219826D01*
X120020185Y-108152787D01*
X120072989Y-108107032D01*
X120142147Y-108097088D01*
X120205703Y-108126113D01*
X120243477Y-108184891D01*
X120245391Y-108192234D01*
X120283058Y-108357270D01*
X120378883Y-108601426D01*
X120378882Y-108601426D01*
X120510030Y-108828577D01*
X120557873Y-108888571D01*
X120557874Y-108888571D01*
X121208766Y-108237679D01*
X121252316Y-108319822D01*
X121372009Y-108460735D01*
X121519195Y-108572623D01*
X121561402Y-108592150D01*
X120910831Y-109242720D01*
X121082546Y-109359793D01*
X121082550Y-109359795D01*
X121318854Y-109473594D01*
X121318858Y-109473595D01*
X121569494Y-109550907D01*
X121569500Y-109550909D01*
X121828848Y-109589999D01*
X121828857Y-109590000D01*
X122091143Y-109590000D01*
X122091151Y-109589999D01*
X122350499Y-109550909D01*
X122350505Y-109550907D01*
X122601143Y-109473595D01*
X122837445Y-109359798D01*
X122837456Y-109359791D01*
X123009167Y-109242720D01*
X122358609Y-108592161D01*
X122477431Y-108520669D01*
X122611658Y-108393523D01*
X122714861Y-108241308D01*
X123362124Y-108888571D01*
X123409974Y-108828570D01*
X123541116Y-108601426D01*
X123636941Y-108357270D01*
X123695306Y-108101550D01*
X123695307Y-108101545D01*
X123714907Y-107840004D01*
X123714907Y-107839995D01*
X123695307Y-107578454D01*
X123695306Y-107578449D01*
X123636941Y-107322729D01*
X123541118Y-107078576D01*
X123430222Y-106886501D01*
X123413749Y-106818600D01*
X123436601Y-106752573D01*
X123491522Y-106709383D01*
X123537609Y-106700500D01*
X125462391Y-106700500D01*
X125529430Y-106720185D01*
X125575185Y-106772989D01*
X125585129Y-106842147D01*
X125569778Y-106886501D01*
X125458881Y-107078576D01*
X125363058Y-107322729D01*
X125304693Y-107578449D01*
X125304692Y-107578454D01*
X125285093Y-107839995D01*
X125285093Y-107840004D01*
X125304692Y-108101545D01*
X125304693Y-108101550D01*
X125363058Y-108357270D01*
X125458883Y-108601426D01*
X125458882Y-108601426D01*
X125590030Y-108828577D01*
X125637873Y-108888571D01*
X126288766Y-108237678D01*
X126332316Y-108319822D01*
X126452009Y-108460735D01*
X126599195Y-108572623D01*
X126641402Y-108592150D01*
X125990831Y-109242720D01*
X126162546Y-109359793D01*
X126162550Y-109359795D01*
X126398854Y-109473594D01*
X126398858Y-109473595D01*
X126649494Y-109550907D01*
X126649500Y-109550909D01*
X126908848Y-109589999D01*
X126908857Y-109590000D01*
X127171251Y-109590000D01*
X127238290Y-109609685D01*
X127284045Y-109662489D01*
X127293989Y-109731647D01*
X127264964Y-109795203D01*
X127215689Y-109829764D01*
X126993005Y-109915244D01*
X126647456Y-110091310D01*
X126322206Y-110302531D01*
X126064648Y-110511095D01*
X126064648Y-110511096D01*
X126962306Y-111408754D01*
X126900489Y-111367449D01*
X126827568Y-111352944D01*
X126778320Y-111352944D01*
X126705399Y-111367449D01*
X126622704Y-111422704D01*
X126567449Y-111505399D01*
X126548046Y-111602944D01*
X126567449Y-111700489D01*
X126608753Y-111762305D01*
X125711096Y-110864648D01*
X125711095Y-110864648D01*
X125502531Y-111122206D01*
X125291310Y-111447456D01*
X125115244Y-111793005D01*
X124976262Y-112155063D01*
X124875887Y-112529669D01*
X124875886Y-112529676D01*
X124815219Y-112912712D01*
X124794922Y-113299999D01*
X124794922Y-113300000D01*
X124815219Y-113687287D01*
X124875886Y-114070323D01*
X124875887Y-114070330D01*
X124976262Y-114444936D01*
X125115244Y-114806994D01*
X125291310Y-115152543D01*
X125502531Y-115477793D01*
X125711095Y-115735350D01*
X125711096Y-115735350D01*
X126608756Y-114837689D01*
X126567449Y-114899511D01*
X126548046Y-114997056D01*
X126567449Y-115094601D01*
X126622704Y-115177296D01*
X126705399Y-115232551D01*
X126778320Y-115247056D01*
X126827568Y-115247056D01*
X126900489Y-115232551D01*
X126962304Y-115191247D01*
X126064648Y-116088903D01*
X126064649Y-116088904D01*
X126322206Y-116297468D01*
X126647456Y-116508689D01*
X126993005Y-116684755D01*
X127355063Y-116823737D01*
X127729669Y-116924112D01*
X127729676Y-116924113D01*
X128112712Y-116984780D01*
X128499999Y-117005078D01*
X128500001Y-117005078D01*
X128887287Y-116984780D01*
X129270323Y-116924113D01*
X129270330Y-116924112D01*
X129644936Y-116823737D01*
X130006994Y-116684755D01*
X130352543Y-116508689D01*
X130677783Y-116297476D01*
X130677785Y-116297475D01*
X130935349Y-116088902D01*
X130037691Y-115191244D01*
X130099511Y-115232551D01*
X130172432Y-115247056D01*
X130221680Y-115247056D01*
X130294601Y-115232551D01*
X130377296Y-115177296D01*
X130432551Y-115094601D01*
X130451954Y-114997056D01*
X130432551Y-114899511D01*
X130391245Y-114837692D01*
X131288902Y-115735349D01*
X131497475Y-115477785D01*
X131497476Y-115477783D01*
X131708689Y-115152543D01*
X131884755Y-114806994D01*
X132023737Y-114444936D01*
X132124112Y-114070330D01*
X132124113Y-114070323D01*
X132184780Y-113687287D01*
X132205078Y-113300000D01*
X164794922Y-113300000D01*
X164815219Y-113687287D01*
X164875886Y-114070323D01*
X164875887Y-114070330D01*
X164976262Y-114444936D01*
X165115244Y-114806994D01*
X165291310Y-115152543D01*
X165502531Y-115477793D01*
X165711095Y-115735350D01*
X165711096Y-115735350D01*
X166608756Y-114837689D01*
X166567449Y-114899511D01*
X166548046Y-114997056D01*
X166567449Y-115094601D01*
X166622704Y-115177296D01*
X166705399Y-115232551D01*
X166778320Y-115247056D01*
X166827568Y-115247056D01*
X166900489Y-115232551D01*
X166962304Y-115191247D01*
X166064648Y-116088903D01*
X166064649Y-116088904D01*
X166322206Y-116297468D01*
X166647456Y-116508689D01*
X166993005Y-116684755D01*
X167355063Y-116823737D01*
X167729669Y-116924112D01*
X167729676Y-116924113D01*
X168112712Y-116984780D01*
X168499999Y-117005078D01*
X168500001Y-117005078D01*
X168887287Y-116984780D01*
X169270323Y-116924113D01*
X169270330Y-116924112D01*
X169644936Y-116823737D01*
X170006994Y-116684755D01*
X170352543Y-116508689D01*
X170677783Y-116297476D01*
X170677785Y-116297475D01*
X170935349Y-116088902D01*
X170037691Y-115191244D01*
X170099511Y-115232551D01*
X170172432Y-115247056D01*
X170221680Y-115247056D01*
X170294601Y-115232551D01*
X170377296Y-115177296D01*
X170432551Y-115094601D01*
X170451954Y-114997056D01*
X170432551Y-114899511D01*
X170391243Y-114837690D01*
X171288902Y-115735349D01*
X171497475Y-115477785D01*
X171497476Y-115477783D01*
X171708689Y-115152543D01*
X171884755Y-114806994D01*
X172023737Y-114444936D01*
X172124112Y-114070330D01*
X172124113Y-114070323D01*
X172184780Y-113687287D01*
X172205078Y-113300000D01*
X172205078Y-113299999D01*
X172184780Y-112912712D01*
X172124113Y-112529676D01*
X172124112Y-112529669D01*
X172023737Y-112155063D01*
X171884755Y-111793005D01*
X171708689Y-111447456D01*
X171497468Y-111122206D01*
X171288904Y-110864649D01*
X171288903Y-110864648D01*
X170391247Y-111762303D01*
X170432551Y-111700489D01*
X170451954Y-111602944D01*
X170432551Y-111505399D01*
X170377296Y-111422704D01*
X170294601Y-111367449D01*
X170221680Y-111352944D01*
X170172432Y-111352944D01*
X170099511Y-111367449D01*
X170037690Y-111408755D01*
X170935350Y-110511096D01*
X170935350Y-110511095D01*
X170677793Y-110302531D01*
X170352543Y-110091310D01*
X170006994Y-109915244D01*
X169644936Y-109776262D01*
X169270330Y-109675887D01*
X169270323Y-109675886D01*
X168887287Y-109615219D01*
X168500001Y-109594922D01*
X168499999Y-109594922D01*
X168112712Y-109615219D01*
X167729676Y-109675886D01*
X167729669Y-109675887D01*
X167355063Y-109776262D01*
X166993005Y-109915244D01*
X166647456Y-110091310D01*
X166322206Y-110302531D01*
X166064648Y-110511095D01*
X166064648Y-110511096D01*
X166962306Y-111408754D01*
X166900489Y-111367449D01*
X166827568Y-111352944D01*
X166778320Y-111352944D01*
X166705399Y-111367449D01*
X166622704Y-111422704D01*
X166567449Y-111505399D01*
X166548046Y-111602944D01*
X166567449Y-111700489D01*
X166608753Y-111762305D01*
X165711096Y-110864648D01*
X165711095Y-110864648D01*
X165502531Y-111122206D01*
X165291310Y-111447456D01*
X165115244Y-111793005D01*
X164976262Y-112155063D01*
X164875887Y-112529669D01*
X164875886Y-112529676D01*
X164815219Y-112912712D01*
X164794922Y-113299999D01*
X164794922Y-113300000D01*
X132205078Y-113300000D01*
X132205078Y-113299999D01*
X132184780Y-112912712D01*
X132124113Y-112529676D01*
X132124112Y-112529669D01*
X132023737Y-112155063D01*
X131884755Y-111793005D01*
X131708689Y-111447456D01*
X131497468Y-111122206D01*
X131288904Y-110864649D01*
X131288903Y-110864648D01*
X130391247Y-111762303D01*
X130432551Y-111700489D01*
X130451954Y-111602944D01*
X130432551Y-111505399D01*
X130377296Y-111422704D01*
X130294601Y-111367449D01*
X130221680Y-111352944D01*
X130172432Y-111352944D01*
X130099511Y-111367449D01*
X130037690Y-111408755D01*
X130935350Y-110511096D01*
X130935350Y-110511095D01*
X130677793Y-110302531D01*
X130352543Y-110091310D01*
X130006994Y-109915244D01*
X129644936Y-109776262D01*
X129270330Y-109675887D01*
X129270323Y-109675886D01*
X128887287Y-109615219D01*
X128500001Y-109594922D01*
X128499999Y-109594922D01*
X128112712Y-109615219D01*
X127865141Y-109654430D01*
X127795847Y-109645475D01*
X127742395Y-109600479D01*
X127721756Y-109533727D01*
X127740481Y-109466414D01*
X127791942Y-109420237D01*
X127917446Y-109359798D01*
X127917456Y-109359791D01*
X128089167Y-109242720D01*
X127438609Y-108592161D01*
X127557431Y-108520669D01*
X127691658Y-108393523D01*
X127794861Y-108241308D01*
X128442124Y-108888571D01*
X128489974Y-108828570D01*
X128621116Y-108601426D01*
X128716941Y-108357270D01*
X128775306Y-108101550D01*
X128775307Y-108101545D01*
X128794907Y-107840004D01*
X128794907Y-107839995D01*
X128775307Y-107578454D01*
X128775306Y-107578449D01*
X128716941Y-107322729D01*
X128621116Y-107078573D01*
X128621117Y-107078573D01*
X128489971Y-106851426D01*
X128442125Y-106791427D01*
X127791232Y-107442319D01*
X127747684Y-107360178D01*
X127627991Y-107219265D01*
X127480805Y-107107377D01*
X127438596Y-107087849D01*
X128089167Y-106437278D01*
X127917447Y-106320202D01*
X127917445Y-106320201D01*
X127681142Y-106206404D01*
X127681144Y-106206404D01*
X127430505Y-106129092D01*
X127430499Y-106129090D01*
X127171151Y-106090000D01*
X126908848Y-106090000D01*
X126649500Y-106129090D01*
X126649494Y-106129092D01*
X126398858Y-106206404D01*
X126398854Y-106206405D01*
X126162550Y-106320204D01*
X126162546Y-106320206D01*
X126094350Y-106366701D01*
X126027870Y-106388201D01*
X125960320Y-106370346D01*
X125913147Y-106318806D01*
X125900500Y-106264251D01*
X125900500Y-105380001D01*
X165594891Y-105380001D01*
X165615300Y-105665362D01*
X165676109Y-105944895D01*
X165776091Y-106212958D01*
X165913191Y-106464038D01*
X165913196Y-106464046D01*
X166019882Y-106606561D01*
X166019883Y-106606562D01*
X166915195Y-105711250D01*
X166937340Y-105762587D01*
X167043433Y-105905094D01*
X167179530Y-106019294D01*
X167269216Y-106064335D01*
X166373436Y-106960115D01*
X166515960Y-107066807D01*
X166515961Y-107066808D01*
X166767042Y-107203908D01*
X166767041Y-107203908D01*
X167035104Y-107303890D01*
X167314637Y-107364699D01*
X167599999Y-107385109D01*
X167600001Y-107385109D01*
X167885362Y-107364699D01*
X168164895Y-107303890D01*
X168432958Y-107203908D01*
X168684047Y-107066803D01*
X168826561Y-106960116D01*
X168826562Y-106960115D01*
X167933748Y-106067300D01*
X167943409Y-106063784D01*
X168091844Y-105966157D01*
X168213764Y-105836930D01*
X168285768Y-105712215D01*
X169180115Y-106606562D01*
X169180116Y-106606561D01*
X169286803Y-106464047D01*
X169423908Y-106212958D01*
X169523890Y-105944895D01*
X169584699Y-105665362D01*
X169605109Y-105380001D01*
X169605109Y-105379998D01*
X169584699Y-105094637D01*
X169523890Y-104815104D01*
X169423908Y-104547041D01*
X169286808Y-104295961D01*
X169286807Y-104295960D01*
X169180115Y-104153436D01*
X168284803Y-105048747D01*
X168262660Y-104997413D01*
X168156567Y-104854906D01*
X168020470Y-104740706D01*
X167930782Y-104695663D01*
X168826562Y-103799883D01*
X168826561Y-103799882D01*
X168684046Y-103693196D01*
X168684038Y-103693191D01*
X168432957Y-103556091D01*
X168432958Y-103556091D01*
X168164895Y-103456109D01*
X167885362Y-103395300D01*
X167600001Y-103374891D01*
X167599999Y-103374891D01*
X167314637Y-103395300D01*
X167035104Y-103456109D01*
X166767041Y-103556091D01*
X166515961Y-103693191D01*
X166515953Y-103693196D01*
X166373437Y-103799882D01*
X166373436Y-103799883D01*
X167266252Y-104692699D01*
X167256591Y-104696216D01*
X167108156Y-104793843D01*
X166986236Y-104923070D01*
X166914231Y-105047784D01*
X166019883Y-104153436D01*
X166019882Y-104153437D01*
X165913196Y-104295953D01*
X165913191Y-104295961D01*
X165776091Y-104547041D01*
X165676109Y-104815104D01*
X165615300Y-105094637D01*
X165594891Y-105379998D01*
X165594891Y-105380001D01*
X125900500Y-105380001D01*
X125900500Y-104335748D01*
X125920184Y-104268713D01*
X125972988Y-104222958D01*
X126042146Y-104213014D01*
X126094350Y-104233298D01*
X126162546Y-104279793D01*
X126162550Y-104279795D01*
X126398854Y-104393594D01*
X126398858Y-104393595D01*
X126649494Y-104470907D01*
X126649500Y-104470909D01*
X126908848Y-104509999D01*
X126908857Y-104510000D01*
X127171143Y-104510000D01*
X127171151Y-104509999D01*
X127430499Y-104470909D01*
X127430505Y-104470907D01*
X127681143Y-104393595D01*
X127917445Y-104279798D01*
X127917456Y-104279791D01*
X128089167Y-104162720D01*
X127438609Y-103512162D01*
X127557431Y-103440669D01*
X127691658Y-103313523D01*
X127794861Y-103161308D01*
X128442124Y-103808571D01*
X128489974Y-103748570D01*
X128621116Y-103521426D01*
X128716941Y-103277270D01*
X128775306Y-103021550D01*
X128775307Y-103021545D01*
X128794907Y-102760004D01*
X128794907Y-102759995D01*
X128775307Y-102498454D01*
X128775306Y-102498449D01*
X128716941Y-102242729D01*
X128621116Y-101998573D01*
X128621117Y-101998573D01*
X128520717Y-101824678D01*
X165849500Y-101824678D01*
X165864032Y-101897735D01*
X165864033Y-101897739D01*
X165864034Y-101897740D01*
X165919399Y-101980601D01*
X166002259Y-102035966D01*
X166002260Y-102035966D01*
X166002264Y-102035967D01*
X166075321Y-102050499D01*
X166075324Y-102050500D01*
X166075326Y-102050500D01*
X169124676Y-102050500D01*
X169124677Y-102050499D01*
X169197740Y-102035966D01*
X169280601Y-101980601D01*
X169335966Y-101897740D01*
X169350500Y-101824674D01*
X169350500Y-98775326D01*
X169350500Y-98775323D01*
X169350499Y-98775321D01*
X169335967Y-98702264D01*
X169335966Y-98702260D01*
X169335965Y-98702259D01*
X169280601Y-98619399D01*
X169197740Y-98564034D01*
X169197739Y-98564033D01*
X169197735Y-98564032D01*
X169124677Y-98549500D01*
X169124674Y-98549500D01*
X166075326Y-98549500D01*
X166075323Y-98549500D01*
X166002264Y-98564032D01*
X166002260Y-98564033D01*
X165919399Y-98619399D01*
X165864033Y-98702260D01*
X165864032Y-98702264D01*
X165849500Y-98775321D01*
X165849500Y-101824678D01*
X128520717Y-101824678D01*
X128489971Y-101771426D01*
X128442125Y-101711427D01*
X127791232Y-102362319D01*
X127747684Y-102280178D01*
X127627991Y-102139265D01*
X127480805Y-102027377D01*
X127438596Y-102007849D01*
X128089167Y-101357278D01*
X127917447Y-101240202D01*
X127917445Y-101240201D01*
X127681142Y-101126404D01*
X127681144Y-101126404D01*
X127430505Y-101049092D01*
X127430499Y-101049090D01*
X127171151Y-101010000D01*
X126908848Y-101010000D01*
X126649500Y-101049090D01*
X126649494Y-101049092D01*
X126398858Y-101126404D01*
X126398854Y-101126405D01*
X126162550Y-101240204D01*
X126162546Y-101240206D01*
X125990832Y-101357278D01*
X126641391Y-102007837D01*
X126522569Y-102079331D01*
X126388342Y-102206477D01*
X126285138Y-102358691D01*
X125637874Y-101711428D01*
X125590027Y-101771426D01*
X125458883Y-101998573D01*
X125363058Y-102242729D01*
X125304693Y-102498449D01*
X125304692Y-102498454D01*
X125285093Y-102759995D01*
X125285093Y-102760004D01*
X125304692Y-103021545D01*
X125304693Y-103021550D01*
X125363058Y-103277270D01*
X125458881Y-103521423D01*
X125569778Y-103713499D01*
X125586251Y-103781400D01*
X125563399Y-103847427D01*
X125508478Y-103890617D01*
X125462391Y-103899500D01*
X123537609Y-103899500D01*
X123470570Y-103879815D01*
X123424815Y-103827011D01*
X123414871Y-103757853D01*
X123430222Y-103713499D01*
X123541118Y-103521423D01*
X123636941Y-103277270D01*
X123695306Y-103021550D01*
X123695307Y-103021545D01*
X123714907Y-102760004D01*
X123714907Y-102759995D01*
X123695307Y-102498454D01*
X123695306Y-102498449D01*
X123636941Y-102242729D01*
X123541116Y-101998573D01*
X123541117Y-101998573D01*
X123409971Y-101771426D01*
X123362125Y-101711427D01*
X122711232Y-102362319D01*
X122667684Y-102280178D01*
X122547991Y-102139265D01*
X122400805Y-102027377D01*
X122358596Y-102007849D01*
X123009167Y-101357278D01*
X122837447Y-101240202D01*
X122837445Y-101240201D01*
X122601142Y-101126404D01*
X122601144Y-101126404D01*
X122350505Y-101049092D01*
X122350499Y-101049090D01*
X122091151Y-101010000D01*
X121828848Y-101010000D01*
X121569500Y-101049090D01*
X121569494Y-101049092D01*
X121318858Y-101126404D01*
X121318854Y-101126405D01*
X121082550Y-101240204D01*
X121082546Y-101240206D01*
X120910832Y-101357278D01*
X121561391Y-102007837D01*
X121442569Y-102079331D01*
X121308342Y-102206477D01*
X121205138Y-102358692D01*
X120557873Y-101711427D01*
X120510029Y-101771423D01*
X120378883Y-101998573D01*
X120283058Y-102242729D01*
X120245391Y-102407765D01*
X120211282Y-102468744D01*
X120149621Y-102501602D01*
X120079984Y-102495907D01*
X120024480Y-102453467D01*
X120000732Y-102387757D01*
X120000500Y-102380173D01*
X120000500Y-95460001D01*
X122494891Y-95460001D01*
X122515300Y-95745362D01*
X122576109Y-96024895D01*
X122676091Y-96292958D01*
X122813191Y-96544038D01*
X122813196Y-96544046D01*
X122919882Y-96686561D01*
X122919883Y-96686562D01*
X123815195Y-95791250D01*
X123837340Y-95842587D01*
X123943433Y-95985094D01*
X124079530Y-96099294D01*
X124169216Y-96144335D01*
X123273436Y-97040115D01*
X123415960Y-97146807D01*
X123415961Y-97146808D01*
X123667042Y-97283908D01*
X123667041Y-97283908D01*
X123935104Y-97383890D01*
X124214637Y-97444699D01*
X124499999Y-97465109D01*
X124500001Y-97465109D01*
X124785362Y-97444699D01*
X125064895Y-97383890D01*
X125332958Y-97283908D01*
X125584047Y-97146803D01*
X125726561Y-97040116D01*
X125726562Y-97040115D01*
X124833748Y-96147300D01*
X124843409Y-96143784D01*
X124991844Y-96046157D01*
X125113764Y-95916930D01*
X125185768Y-95792215D01*
X126080115Y-96686562D01*
X126080116Y-96686561D01*
X126186803Y-96544047D01*
X126323908Y-96292958D01*
X126423890Y-96024895D01*
X126484699Y-95745362D01*
X126505108Y-95460001D01*
X126505108Y-95459998D01*
X126484699Y-95174637D01*
X126423890Y-94895104D01*
X126323908Y-94627041D01*
X126186808Y-94375961D01*
X126186807Y-94375960D01*
X126080115Y-94233436D01*
X125184803Y-95128747D01*
X125162660Y-95077413D01*
X125056567Y-94934906D01*
X124920470Y-94820706D01*
X124830782Y-94775663D01*
X125726562Y-93879883D01*
X125726561Y-93879882D01*
X125584046Y-93773196D01*
X125584038Y-93773191D01*
X125332957Y-93636091D01*
X125332958Y-93636091D01*
X125064895Y-93536109D01*
X124785362Y-93475300D01*
X124500001Y-93454891D01*
X124499999Y-93454891D01*
X124214637Y-93475300D01*
X123935104Y-93536109D01*
X123667041Y-93636091D01*
X123415961Y-93773191D01*
X123415953Y-93773196D01*
X123273437Y-93879882D01*
X123273436Y-93879883D01*
X124166252Y-94772699D01*
X124156591Y-94776216D01*
X124008156Y-94873843D01*
X123886236Y-95003070D01*
X123814231Y-95127784D01*
X122919883Y-94233436D01*
X122919882Y-94233437D01*
X122813196Y-94375953D01*
X122813191Y-94375961D01*
X122676091Y-94627041D01*
X122576109Y-94895104D01*
X122515300Y-95174637D01*
X122494891Y-95459998D01*
X122494891Y-95460001D01*
X120000500Y-95460001D01*
X120000500Y-90380004D01*
X122744592Y-90380004D01*
X122764196Y-90641620D01*
X122764197Y-90641625D01*
X122822576Y-90897402D01*
X122822578Y-90897411D01*
X122822580Y-90897416D01*
X122918432Y-91141643D01*
X123049614Y-91368857D01*
X123181736Y-91534533D01*
X123213198Y-91573985D01*
X123394753Y-91742441D01*
X123405521Y-91752433D01*
X123622296Y-91900228D01*
X123622301Y-91900230D01*
X123622302Y-91900231D01*
X123622303Y-91900232D01*
X123747843Y-91960688D01*
X123858673Y-92014061D01*
X123858674Y-92014061D01*
X123858677Y-92014063D01*
X124109385Y-92091396D01*
X124368818Y-92130500D01*
X124631182Y-92130500D01*
X124890615Y-92091396D01*
X125141323Y-92014063D01*
X125377704Y-91900228D01*
X125594479Y-91752433D01*
X125786805Y-91573981D01*
X125950386Y-91368857D01*
X126081568Y-91141643D01*
X126177420Y-90897416D01*
X126235802Y-90641630D01*
X126255408Y-90380000D01*
X126235802Y-90118370D01*
X126177420Y-89862584D01*
X126081568Y-89618357D01*
X125950386Y-89391143D01*
X125786805Y-89186019D01*
X125786804Y-89186018D01*
X125786801Y-89186014D01*
X125594479Y-89007567D01*
X125594478Y-89007567D01*
X125377704Y-88859772D01*
X125377700Y-88859770D01*
X125377697Y-88859768D01*
X125377696Y-88859767D01*
X125141325Y-88745938D01*
X125141327Y-88745938D01*
X124890623Y-88668606D01*
X124890619Y-88668605D01*
X124890615Y-88668604D01*
X124765823Y-88649794D01*
X124631187Y-88629500D01*
X124631182Y-88629500D01*
X124368818Y-88629500D01*
X124368812Y-88629500D01*
X124207247Y-88653853D01*
X124109385Y-88668604D01*
X124109381Y-88668605D01*
X124109382Y-88668605D01*
X124109376Y-88668606D01*
X123858673Y-88745938D01*
X123622303Y-88859767D01*
X123622302Y-88859768D01*
X123405520Y-89007567D01*
X123213198Y-89186014D01*
X123049614Y-89391143D01*
X122918432Y-89618356D01*
X122822582Y-89862578D01*
X122822576Y-89862597D01*
X122764197Y-90118374D01*
X122764196Y-90118379D01*
X122744592Y-90379995D01*
X122744592Y-90380004D01*
X120000500Y-90380004D01*
X120000500Y-86824676D01*
X122749499Y-86824676D01*
X122749500Y-86824678D01*
X122764032Y-86897735D01*
X122764033Y-86897739D01*
X122764034Y-86897740D01*
X122819399Y-86980601D01*
X122902259Y-87035965D01*
X122902260Y-87035966D01*
X122902264Y-87035967D01*
X122975321Y-87050499D01*
X122975324Y-87050500D01*
X122975326Y-87050500D01*
X126024676Y-87050500D01*
X126024677Y-87050499D01*
X126097740Y-87035966D01*
X126180601Y-86980601D01*
X126235966Y-86897740D01*
X126250500Y-86824674D01*
X126250500Y-83775326D01*
X126250500Y-83775323D01*
X126250499Y-83775321D01*
X126235967Y-83702264D01*
X126235966Y-83702260D01*
X126235965Y-83702260D01*
X126180601Y-83619399D01*
X126097740Y-83564034D01*
X126097739Y-83564033D01*
X126097735Y-83564032D01*
X126024677Y-83549500D01*
X126024674Y-83549500D01*
X122975326Y-83549500D01*
X122975323Y-83549500D01*
X122902264Y-83564032D01*
X122902260Y-83564033D01*
X122819399Y-83619399D01*
X122764033Y-83702260D01*
X122764032Y-83702264D01*
X122749500Y-83775321D01*
X122749499Y-83775323D01*
X122749499Y-86824676D01*
X120000500Y-86824676D01*
X120000500Y-65300000D01*
X124794922Y-65300000D01*
X124815219Y-65687287D01*
X124875886Y-66070323D01*
X124875887Y-66070330D01*
X124976262Y-66444936D01*
X125115244Y-66806994D01*
X125291310Y-67152543D01*
X125502531Y-67477793D01*
X125711095Y-67735350D01*
X125711096Y-67735350D01*
X126608756Y-66837689D01*
X126567449Y-66899511D01*
X126548046Y-66997056D01*
X126567449Y-67094601D01*
X126622704Y-67177296D01*
X126705399Y-67232551D01*
X126778320Y-67247056D01*
X126827568Y-67247056D01*
X126900489Y-67232551D01*
X126962304Y-67191247D01*
X126064648Y-68088903D01*
X126064649Y-68088904D01*
X126322206Y-68297468D01*
X126647456Y-68508689D01*
X126993005Y-68684755D01*
X127355063Y-68823737D01*
X127729669Y-68924112D01*
X127729676Y-68924113D01*
X128112712Y-68984780D01*
X128499999Y-69005078D01*
X128500001Y-69005078D01*
X128887287Y-68984780D01*
X129270323Y-68924113D01*
X129270330Y-68924112D01*
X129644936Y-68823737D01*
X130006994Y-68684755D01*
X130352543Y-68508689D01*
X130677783Y-68297476D01*
X130677785Y-68297475D01*
X130935349Y-68088902D01*
X130037691Y-67191244D01*
X130099511Y-67232551D01*
X130172432Y-67247056D01*
X130221680Y-67247056D01*
X130294601Y-67232551D01*
X130377296Y-67177296D01*
X130432551Y-67094601D01*
X130451954Y-66997056D01*
X130432551Y-66899511D01*
X130391243Y-66837690D01*
X131288902Y-67735349D01*
X131497475Y-67477785D01*
X131497476Y-67477783D01*
X131708689Y-67152543D01*
X131884755Y-66806994D01*
X132023737Y-66444936D01*
X132124112Y-66070330D01*
X132124113Y-66070323D01*
X132184780Y-65687287D01*
X132205078Y-65300000D01*
X132205078Y-65299999D01*
X132184780Y-64912712D01*
X132124113Y-64529676D01*
X132124112Y-64529669D01*
X132023737Y-64155063D01*
X131884755Y-63793005D01*
X131708689Y-63447456D01*
X131497468Y-63122206D01*
X131288904Y-62864649D01*
X131288903Y-62864648D01*
X130391248Y-63762302D01*
X130432551Y-63700489D01*
X130451954Y-63602944D01*
X130432551Y-63505399D01*
X130377296Y-63422704D01*
X130294601Y-63367449D01*
X130221680Y-63352944D01*
X130172432Y-63352944D01*
X130099511Y-63367449D01*
X130037690Y-63408755D01*
X130935350Y-62511096D01*
X130935350Y-62511095D01*
X130677793Y-62302531D01*
X130352543Y-62091310D01*
X130006994Y-61915244D01*
X129644936Y-61776262D01*
X129270330Y-61675887D01*
X129270323Y-61675886D01*
X128887287Y-61615219D01*
X128500001Y-61594922D01*
X128499999Y-61594922D01*
X128112712Y-61615219D01*
X127729676Y-61675886D01*
X127729669Y-61675887D01*
X127355063Y-61776262D01*
X126993005Y-61915244D01*
X126647456Y-62091310D01*
X126322206Y-62302531D01*
X126064648Y-62511095D01*
X126064648Y-62511096D01*
X126962306Y-63408754D01*
X126900489Y-63367449D01*
X126827568Y-63352944D01*
X126778320Y-63352944D01*
X126705399Y-63367449D01*
X126622704Y-63422704D01*
X126567449Y-63505399D01*
X126548046Y-63602944D01*
X126567449Y-63700489D01*
X126608753Y-63762305D01*
X125711096Y-62864648D01*
X125711095Y-62864648D01*
X125502531Y-63122206D01*
X125291310Y-63447456D01*
X125115244Y-63793005D01*
X124976262Y-64155063D01*
X124875887Y-64529669D01*
X124875886Y-64529676D01*
X124815219Y-64912712D01*
X124794922Y-65299999D01*
X124794922Y-65300000D01*
X120000500Y-65300000D01*
X120000500Y-62002036D01*
X120000633Y-61997981D01*
X120005982Y-61916360D01*
X120006062Y-61915244D01*
X120018986Y-61734536D01*
X120020014Y-61726903D01*
X120043153Y-61610579D01*
X120046559Y-61594922D01*
X120074533Y-61466323D01*
X120076392Y-61459625D01*
X120116815Y-61340543D01*
X120166159Y-61208251D01*
X120168633Y-61202520D01*
X120225583Y-61087036D01*
X120292179Y-60965076D01*
X120295019Y-60960384D01*
X120366563Y-60853311D01*
X120368428Y-60850676D01*
X120450291Y-60741321D01*
X120453244Y-60737678D01*
X120538503Y-60640459D01*
X120541198Y-60637581D01*
X120637581Y-60541198D01*
X120640459Y-60538503D01*
X120737678Y-60453244D01*
X120741321Y-60450291D01*
X120850676Y-60368428D01*
X120853311Y-60366563D01*
X120960384Y-60295019D01*
X120965076Y-60292179D01*
X121087036Y-60225583D01*
X121202520Y-60168633D01*
X121208251Y-60166159D01*
X121340543Y-60116815D01*
X121459625Y-60076392D01*
X121466323Y-60074533D01*
X121610548Y-60043158D01*
X121726903Y-60020014D01*
X121734536Y-60018986D01*
X121916244Y-60005989D01*
X121969211Y-60002517D01*
X121997981Y-60000633D01*
X122002036Y-60000500D01*
X151599901Y-60000500D01*
X152964128Y-60000500D01*
X153031167Y-60020185D01*
G37*
%TD.AperFunction*%
%TA.AperFunction,Conductor*%
G36*
X130356419Y-114802866D02*
G01*
X130294601Y-114761561D01*
X130221680Y-114747056D01*
X130172432Y-114747056D01*
X130099511Y-114761561D01*
X130016816Y-114816816D01*
X129961561Y-114899511D01*
X129942158Y-114997056D01*
X129961561Y-115094601D01*
X130002867Y-115156420D01*
X129444180Y-114597733D01*
X129634870Y-114434870D01*
X129797733Y-114244180D01*
X130356419Y-114802866D01*
G37*
%TD.AperFunction*%
%TA.AperFunction,Conductor*%
G36*
X127365130Y-114434870D02*
G01*
X127555819Y-114597733D01*
X126997135Y-115156416D01*
X127038439Y-115094601D01*
X127057842Y-114997056D01*
X127038439Y-114899511D01*
X126983184Y-114816816D01*
X126900489Y-114761561D01*
X126827568Y-114747056D01*
X126778320Y-114747056D01*
X126705399Y-114761561D01*
X126643577Y-114802868D01*
X127202266Y-114244180D01*
X127365130Y-114434870D01*
G37*
%TD.AperFunction*%
%TA.AperFunction,Conductor*%
G36*
X127555819Y-112002266D02*
G01*
X127365130Y-112165130D01*
X127202266Y-112355818D01*
X126643582Y-111797134D01*
X126705399Y-111838439D01*
X126778320Y-111852944D01*
X126827568Y-111852944D01*
X126900489Y-111838439D01*
X126983184Y-111783184D01*
X127038439Y-111700489D01*
X127057842Y-111602944D01*
X127038439Y-111505399D01*
X126997133Y-111443581D01*
X127555819Y-112002266D01*
G37*
%TD.AperFunction*%
%TA.AperFunction,Conductor*%
G36*
X129961561Y-111505399D02*
G01*
X129942158Y-111602944D01*
X129961561Y-111700489D01*
X130016816Y-111783184D01*
X130099511Y-111838439D01*
X130172432Y-111852944D01*
X130221680Y-111852944D01*
X130294601Y-111838439D01*
X130356415Y-111797135D01*
X129797732Y-112355818D01*
X129634870Y-112165130D01*
X129444180Y-112002266D01*
X130002867Y-111443578D01*
X129961561Y-111505399D01*
G37*
%TD.AperFunction*%
%TA.AperFunction,Conductor*%
G36*
X120205703Y-103046113D02*
G01*
X120243477Y-103104891D01*
X120245391Y-103112234D01*
X120283058Y-103277270D01*
X120378883Y-103521426D01*
X120378882Y-103521426D01*
X120510030Y-103748577D01*
X120557873Y-103808571D01*
X120557874Y-103808571D01*
X121208766Y-103157679D01*
X121252316Y-103239822D01*
X121372009Y-103380735D01*
X121519195Y-103492623D01*
X121561402Y-103512150D01*
X120910831Y-104162720D01*
X121082546Y-104279793D01*
X121082550Y-104279795D01*
X121318854Y-104393594D01*
X121318858Y-104393595D01*
X121569494Y-104470907D01*
X121569500Y-104470909D01*
X121828848Y-104509999D01*
X121828857Y-104510000D01*
X122091143Y-104510000D01*
X122091151Y-104509999D01*
X122350499Y-104470909D01*
X122350505Y-104470907D01*
X122601143Y-104393595D01*
X122837445Y-104279798D01*
X122837447Y-104279797D01*
X122905648Y-104233299D01*
X122972127Y-104211799D01*
X123039677Y-104229653D01*
X123086852Y-104281193D01*
X123099500Y-104335753D01*
X123099500Y-106264246D01*
X123079815Y-106331285D01*
X123027011Y-106377040D01*
X122957853Y-106386984D01*
X122905649Y-106366700D01*
X122837454Y-106320206D01*
X122837445Y-106320201D01*
X122601142Y-106206404D01*
X122601144Y-106206404D01*
X122350505Y-106129092D01*
X122350499Y-106129090D01*
X122091151Y-106090000D01*
X121828848Y-106090000D01*
X121569500Y-106129090D01*
X121569494Y-106129092D01*
X121318858Y-106206404D01*
X121318854Y-106206405D01*
X121082550Y-106320204D01*
X121082546Y-106320206D01*
X120910832Y-106437278D01*
X121561391Y-107087837D01*
X121442569Y-107159331D01*
X121308342Y-107286477D01*
X121205138Y-107438692D01*
X120557873Y-106791427D01*
X120510029Y-106851423D01*
X120378883Y-107078573D01*
X120283058Y-107322729D01*
X120245391Y-107487765D01*
X120211282Y-107548744D01*
X120149621Y-107581602D01*
X120079984Y-107575907D01*
X120024480Y-107533467D01*
X120000732Y-107467757D01*
X120000500Y-107460173D01*
X120000500Y-103139826D01*
X120020185Y-103072787D01*
X120072989Y-103027032D01*
X120142147Y-103017088D01*
X120205703Y-103046113D01*
G37*
%TD.AperFunction*%
%TA.AperFunction,Conductor*%
G36*
X158111167Y-60020185D02*
G01*
X158156922Y-60072989D01*
X158166866Y-60142147D01*
X158137841Y-60205703D01*
X158079063Y-60243477D01*
X158062609Y-60247115D01*
X158049500Y-60249090D01*
X158049494Y-60249092D01*
X157798858Y-60326404D01*
X157798854Y-60326405D01*
X157562550Y-60440204D01*
X157562546Y-60440206D01*
X157390832Y-60557278D01*
X158041391Y-61207837D01*
X157922569Y-61279331D01*
X157788342Y-61406477D01*
X157685138Y-61558691D01*
X157037874Y-60911428D01*
X156990027Y-60971426D01*
X156858883Y-61198573D01*
X156763058Y-61442729D01*
X156704693Y-61698449D01*
X156704692Y-61698454D01*
X156685093Y-61959995D01*
X156685093Y-61960004D01*
X156704692Y-62221545D01*
X156704693Y-62221550D01*
X156763058Y-62477270D01*
X156858881Y-62721423D01*
X156969778Y-62913499D01*
X156986251Y-62981400D01*
X156963399Y-63047427D01*
X156908478Y-63090617D01*
X156862391Y-63099500D01*
X154937609Y-63099500D01*
X154870570Y-63079815D01*
X154824815Y-63027011D01*
X154814871Y-62957853D01*
X154830222Y-62913499D01*
X154941118Y-62721423D01*
X155036941Y-62477270D01*
X155095306Y-62221550D01*
X155095307Y-62221545D01*
X155114907Y-61960004D01*
X155114907Y-61959995D01*
X155095307Y-61698454D01*
X155095306Y-61698449D01*
X155036941Y-61442729D01*
X154941116Y-61198573D01*
X154941117Y-61198573D01*
X154809971Y-60971426D01*
X154762125Y-60911427D01*
X154111232Y-61562319D01*
X154067684Y-61480178D01*
X153947991Y-61339265D01*
X153800805Y-61227377D01*
X153758596Y-61207849D01*
X154409167Y-60557278D01*
X154237447Y-60440202D01*
X154237445Y-60440201D01*
X154001142Y-60326404D01*
X154001144Y-60326404D01*
X153750505Y-60249092D01*
X153750499Y-60249090D01*
X153737391Y-60247115D01*
X153674034Y-60217659D01*
X153636660Y-60158625D01*
X153637135Y-60088757D01*
X153675308Y-60030237D01*
X153739060Y-60001645D01*
X153755872Y-60000500D01*
X158044128Y-60000500D01*
X158111167Y-60020185D01*
G37*
%TD.AperFunction*%
%TD*%
M02*
